<?xml version="1.0" standalone="no"?>
<!DOCTYPE svg PUBLIC "-//W3C//DTD SVG 20010904//EN"
 "http://www.w3.org/TR/2001/REC-SVG-20010904/DTD/svg10.dtd">
<svg version="1.0" xmlns="http://www.w3.org/2000/svg"
 width="700.000000pt" height="700.000000pt" viewBox="0 0 700.000000 700.000000"
 preserveAspectRatio="xMidYMid meet">
<metadata>
Created by potrace 1.14, written by Peter Selinger 2001-2017
</metadata>
<g transform="translate(0.000000,700.000000) scale(0.100000,-0.100000)"
fill="#000000" stroke="none">
<path d="M519 5463 c-97 -32 -196 -139 -215 -233 -14 -67 -6 -148 19 -203 13
-28 109 -180 212 -337 477 -722 627 -950 640 -972 5 -9 26 -41 46 -70 20 -29
97 -145 171 -258 174 -265 340 -518 603 -915 116 -176 262 -399 325 -495 63
-96 118 -176 122 -178 5 -2 8 -8 8 -13 0 -14 86 -137 122 -175 16 -17 55 -44
86 -60 50 -25 68 -28 142 -28 149 1 209 43 342 244 46 69 85 130 88 135 3 6
88 136 190 290 102 154 248 375 325 492 77 117 190 287 250 379 61 91 115 173
120 182 6 9 40 62 76 117 74 111 362 548 574 870 76 116 217 329 313 475 96
146 186 289 200 318 44 96 31 217 -31 309 -110 160 -336 189 -482 62 -21 -19
-104 -133 -183 -254 -80 -121 -215 -326 -300 -455 -86 -129 -201 -305 -257
-390 -56 -85 -181 -274 -277 -420 -96 -146 -228 -346 -293 -445 -65 -99 -209
-317 -320 -485 -110 -168 -229 -349 -265 -402 -35 -54 -66 -98 -70 -98 -4 0
-40 51 -81 113 -74 114 -310 471 -696 1055 -117 178 -213 327 -213 332 0 5 -3
10 -7 12 -5 2 -42 55 -83 118 -41 63 -78 117 -82 118 -5 2 -8 7 -8 12 0 5 -49
82 -108 172 -60 90 -161 242 -224 338 -339 516 -428 647 -454 672 -16 15 -51
39 -79 54 -62 33 -175 41 -246 17z"/>
<path d="M1360 5382 c-69 -9 -148 -71 -177 -139 -18 -45 -19 -131 0 -174 19
-45 69 -103 110 -126 30 -17 111 -18 1482 -21 1073 -2 1461 0 1492 9 55 15
116 68 143 124 18 37 21 59 18 114 -3 58 -8 74 -39 116 -22 31 -53 58 -84 75
l-49 25 -1436 0 c-789 1 -1446 -1 -1460 -3z"/>
<path d="M3508 2068 c-21 -5 -57 -28 -82 -49 -137 -121 -89 -342 86 -393 34
-10 344 -13 1483 -12 l1440 1 47 23 c80 40 130 126 127 217 -4 93 -47 157
-133 200 l-50 25 -1440 -1 c-913 -1 -1455 -5 -1478 -11z"/>
</g>
</svg>
