<?xml version="1.0" encoding="UTF-8" standalone="no"?><!DOCTYPE svg PUBLIC "-//W3C//DTD SVG 1.1//EN" "http://www.w3.org/Graphics/SVG/1.1/DTD/svg11.dtd"><svg width="100%" height="100%" viewBox="0 0 1400 150" version="1.1" xmlns="http://www.w3.org/2000/svg" xmlns:xlink="http://www.w3.org/1999/xlink" xml:space="preserve" xmlns:serif="http://www.serif.com/" style="fill-rule:evenodd;clip-rule:evenodd;stroke-linejoin:round;stroke-miterlimit:2;"><clipPath id="_clip1"><rect x="-0" y="0" width="1400" height="150"/></clipPath><g clip-path="url(#_clip1)"><path d="M-11.592,114.123c28.002,-13.569 52.318,-50.223 79.457,-50.223c29.584,-0 59.181,50.223 101.132,50.223c60.1,0 142.493,-114.123 178.35,-114.123c34.285,0 109.205,114.123 175.769,114.123c57.162,0 69.574,-50.223 99.934,-50.223c30.36,-0 58.819,50.223 92.516,50.223c41.317,0 81.502,-32.421 116.147,-32.421c35.16,-0 78.203,32.421 124.399,32.421c58.946,0 96.391,-20.354 149.521,-20.354c53.129,-0 112.829,20.354 179.709,20.354c68.889,0 139.199,-11.282 212.724,-11.282c78.517,0 127.947,6.187 231.844,6.187c103.119,0 252.039,-6.187 362.748,-6.187c100.894,0 200.623,5.798 301.504,6.187c120.732,0.465 318.201,-3.396 422.89,-3.396c68.589,0 212.16,4.77 212.16,4.77l-6.916,39.598l-3033.89,0c0,0 -22.264,-25.088 0,-35.877Z" style="fill:#181f2a;"/></g></svg>