<svg viewBox="0 0 375 80" xmlns="http://www.w3.org/2000/svg" fill-rule="evenodd" clip-rule="evenodd" stroke-linejoin="round" stroke-miterlimit="2"><clipPath id="a"><path d="M0 0h375v80H0z"/></clipPath><g clip-path="url(#a)"><path d="M-1.584 60.866C5.979 53.629 12.545 34.08 19.875 34.08c7.989 0 15.982 26.786 27.311 26.786C63.417 60.866 85.668 0 95.352 0c9.259 0 29.492 60.866 47.468 60.866 15.437 0 18.789-26.786 26.988-26.786 8.199 0 15.885 26.786 24.985 26.786 11.158 0 22.011-17.292 31.367-17.292 9.495 0 21.119 17.292 33.595 17.292 15.919 0 26.032-10.856 40.38-10.856 14.348 0 30.47 10.856 48.532 10.856 18.604 0 37.592-6.017 57.448-6.017 21.205 0 34.554 3.299 62.613 3.299 27.848 0 68.065-3.299 97.963-3.299 27.248 0 54.181 3.092 81.425 3.299 32.605.248 85.933-1.811 114.206-1.811 18.523 0 57.296 2.544 57.296 2.544L817.75 80H-1.584s-6.012-13.38 0-19.134z" fill="#181f2a"/></g></svg>