<svg viewBox="0 0 1400 150" xmlns="http://www.w3.org/2000/svg" fill-rule="evenodd" clip-rule="evenodd" stroke-linejoin="round" stroke-miterlimit="2"><clipPath id="a"><path d="M0 0h1400v150H0z"/></clipPath><g clip-path="url(#a)"><path d="M-11.592 114.123C16.41 100.554 40.726 63.9 67.865 63.9c29.584 0 59.181 50.223 101.132 50.223C229.097 114.123 311.49 0 347.347 0c34.285 0 109.205 114.123 175.769 114.123 57.162 0 69.574-50.223 99.934-50.223s58.819 50.223 92.516 50.223c41.317 0 81.502-32.421 116.147-32.421 35.16 0 78.203 32.421 124.399 32.421 58.946 0 96.391-20.354 149.521-20.354 53.129 0 112.829 20.354 179.709 20.354 68.889 0 139.199-11.282 212.724-11.282 78.517 0 127.947 6.187 231.844 6.187 103.119 0 252.039-6.187 362.748-6.187 100.894 0 200.623 5.798 301.504 6.187 120.732.465 318.201-3.396 422.89-3.396 68.589 0 212.16 4.77 212.16 4.77L3022.296 150H-11.594s-22.264-25.088 0-35.877z" fill="#181f2a"/></g></svg>