<?xml version="1.0" encoding="UTF-8" standalone="no"?><!DOCTYPE svg PUBLIC "-//W3C//DTD SVG 1.1//EN" "http://www.w3.org/Graphics/SVG/1.1/DTD/svg11.dtd"><svg width="100%" height="100%" viewBox="0 0 375 80" version="1.1" xmlns="http://www.w3.org/2000/svg" xmlns:xlink="http://www.w3.org/1999/xlink" xml:space="preserve" xmlns:serif="http://www.serif.com/" style="fill-rule:evenodd;clip-rule:evenodd;stroke-linejoin:round;stroke-miterlimit:2;"><clipPath id="_clip1"><rect x="-0" y="0" width="375" height="80"/></clipPath><g clip-path="url(#_clip1)"><path d="M-1.584,60.866c7.563,-7.237 14.129,-26.786 21.459,-26.786c7.989,-0 15.982,26.786 27.311,26.786c16.231,-0 38.482,-60.866 48.166,-60.866c9.259,0 29.492,60.866 47.468,60.866c15.437,-0 18.789,-26.786 26.988,-26.786c8.199,-0 15.885,26.786 24.985,26.786c11.158,-0 22.011,-17.292 31.367,-17.292c9.495,0 21.119,17.292 33.595,17.292c15.919,-0 26.032,-10.856 40.38,-10.856c14.348,0 30.47,10.856 48.532,10.856c18.604,-0 37.592,-6.017 57.448,-6.017c21.205,-0 34.554,3.299 62.613,3.299c27.848,0 68.065,-3.299 97.963,-3.299c27.248,-0 54.181,3.092 81.425,3.299c32.605,0.248 85.933,-1.811 114.206,-1.811c18.523,0 57.296,2.544 57.296,2.544l-1.868,21.119l-819.334,0c0,0 -6.012,-13.38 0,-19.134Z" style="fill:#181f2a;"/></g></svg>