<?xml version="1.0" encoding="UTF-8" standalone="no"?><!DOCTYPE svg PUBLIC "-//W3C//DTD SVG 1.1//EN" "http://www.w3.org/Graphics/SVG/1.1/DTD/svg11.dtd"><svg width="100%" height="100%" viewBox="0 0 888 477" version="1.1" xmlns="http://www.w3.org/2000/svg" xmlns:xlink="http://www.w3.org/1999/xlink" xml:space="preserve" xmlns:serif="http://www.serif.com/" style="fill-rule:evenodd;clip-rule:evenodd;stroke-linejoin:round;stroke-miterlimit:2;"><path d="M336.372,145.025l-184.626,0l-92.313,159.891l92.313,159.891l184.626,0l92.313,-159.891l-92.313,-159.891Z" style="fill:#3857ba;fill-rule:nonzero;"/><path d="M167.2,438.039l153.718,0l76.859,-133.123l-76.859,-133.124l-153.718,0l-76.859,133.124l76.859,133.123Z" style="fill:#1c2431;fill-rule:nonzero;"/><g><rect x="184.701" y="171.594" width="2" height="82.555" style="fill:#425574;"/><rect x="227.402" y="171.594" width="2" height="82.555" style="fill:#425574;"/><circle cx="228.402" cy="258.894" r="5.693" style="fill:#425574;"/><rect x="302.366" y="171.594" width="2" height="82.555" style="fill:#425574;"/><circle cx="303.366" cy="258.894" r="5.693" style="fill:#425574;"/><circle cx="272.052" cy="340.5" r="5.693" style="fill:#425574;"/><circle cx="156.285" cy="288.31" r="5.693" style="fill:#425574;"/><path d="M273.052,335.755l-2,0l0,-99.479l-42.65,0l-0,-2l44.65,0l0,101.479Z" style="fill:#425574;fill-rule:nonzero;"/><path d="M199.986,371.814l-2,0l0,-99.48l-42.65,0l0,-2l44.65,0l0,101.48Z" style="fill:#425574;fill-rule:nonzero;"/><path d="M331.884,327.215l-2,-0l0,-99.479l-27.467,-0l-0,-2l29.467,-0l0,101.479Z" style="fill:#425574;fill-rule:nonzero;"/><path d="M157.285,282.616l-2,0l0,-49.461l30.416,0l0,2l-28.416,0l0,47.461Z" style="fill:#425574;fill-rule:nonzero;"/><circle cx="228.876" cy="398.858" r="5.693" style="fill:#425574;"/><path d="M229.876,393.164l-2,0l0,-47.461l-28.416,0l0,-2l30.416,0l0,49.461Z" style="fill:#425574;fill-rule:nonzero;"/><circle cx="301.468" cy="356.631" r="5.693" style="fill:#425574;"/><path d="M302.468,350.938l-2,0l0,-49.461l30.416,0l0,2l-28.416,0l0,47.461Z" style="fill:#425574;fill-rule:nonzero;"/></g><circle cx="185.701" cy="258.894" r="5.693" style="fill:#3857ba;"/><circle cx="198.986" cy="376.558" r="5.693" style="fill:#3857ba;"/><circle cx="330.884" cy="331.96" r="5.693" style="fill:#3857ba;"/><path d="M697.681,58.277l8.023,22.731l-13.372,26.743l-22.731,-38.777l28.08,-10.697Z" style="fill:#ebc8b2;fill-rule:nonzero;"/><path d="M765.207,333.061c-4.399,6.164 -38.323,41.839 -61.014,65.533c-6.298,6.566 -11.727,12.222 -15.417,16.059c-3.236,3.357 -5.135,5.322 -5.135,5.322l-10.256,-21.448l-4.453,-9.306l0.067,-0.08l2.795,-3.571l26.649,-34.097l27.987,-35.795l-22.732,-45.463l28.08,-4.012l18.667,1.097l4.065,0.241c-0,-0 17.383,56.16 10.697,65.52Z" style="fill:#2f2e41;fill-rule:nonzero;"/><path d="M686.315,442.707c-1.738,1.738 -4.76,-0.481 -8.036,-4.279c-6.779,-7.862 -14.695,-22.464 -14.695,-22.464l-9.36,-20.057c1.003,-5.991 10.175,-6.753 14.775,-6.766c1.565,-0 2.608,0.08 2.608,0.08l0.775,1.15l16.394,24.282c-0,0 2.888,22.705 -2.461,28.054Z" style="fill:#2f2e41;fill-rule:nonzero;"/><path d="M688.776,414.653c-0,0 2.888,22.705 -2.461,28.054c-1.738,1.738 -4.76,-0.481 -8.036,-4.279l-4.894,-39.901l-1.003,-8.156l-0.588,-4.801l26.649,-34.097l5.75,47.121c-6.298,6.566 -11.727,12.222 -15.417,16.059Z" style="fill-opacity:0.2;fill-rule:nonzero;"/><path d="M707.295,277.409l-3.597,-7.194l28.08,-4.012l18.667,1.097l0.053,0.24l-43.203,9.869Z" style="fill-opacity:0.2;fill-rule:nonzero;"/><path d="M671.607,208.706l-9.361,-0l2.675,88.252l18.72,152.435l30.754,-0l-13.371,-109.647l6.686,-61.508l46.8,-10.698l-13.372,-61.508l-69.531,2.674Z" style="fill:#2f2e41;fill-rule:nonzero;"/><path d="M686.315,445.381c0,0 -2.674,18.72 -1.337,20.057c1.337,1.338 2.674,2.675 2.674,5.349c0,2.674 16.046,9.36 24.069,4.011c8.023,-5.348 2.674,-13.371 2.674,-13.371l-8.023,-16.046l-20.057,0Z" style="fill:#2f2e41;fill-rule:nonzero;"/><circle cx="680.967" cy="52.26" r="22.732" style="fill:#ebc8b2;"/><path d="M694.338,88.363l-17.489,-7.025l-10.591,131.379l73.543,5.349l-25.406,-135.052l-11.365,-10.671l-8.692,16.02Z" style="fill:#e6e6e6;fill-rule:nonzero;"/><path d="M674.522,77.37l-13.613,10.993l-25.405,13.371l9.36,84.24l1.337,48.138c-0,-0 -17.383,42.789 -4.012,53.486c13.372,10.697 28.08,6.685 25.406,-16.046c-2.674,-22.732 -8.023,-38.777 17.383,-62.846c25.406,-24.069 3.157,-136.981 -10.456,-131.336Z" style="fill:#2f2e41;fill-rule:nonzero;"/><path d="M701.648,69.516l16.759,10.824l22.731,12.034l17.383,192.549l-38.777,12.035c-0,-0 -21.484,-222.22 -18.096,-227.442Z" style="fill:#2f2e41;fill-rule:nonzero;"/><path d="M745.15,228.763c-0,0 -20.058,30.755 -5.349,30.755c14.709,-0 18.72,-25.406 18.72,-25.406l-13.371,-5.349Z" style="fill:#ebc8b2;fill-rule:nonzero;"/><path d="M662.246,228.763c0,0 20.058,30.755 5.349,30.755c-14.709,-0 -18.72,-25.406 -18.72,-25.406l13.371,-5.349Z" style="fill:#ebc8b2;fill-rule:nonzero;"/><path d="M682.304,18.831l-6.686,-4.012l1.337,2.675l-5.348,-1.337l1.337,1.337l-6.686,-1.337l2.674,2.674c0,-0 -10.697,-0 -12.034,10.697l-6.686,1.337l2.674,4.012l0,4.011l2.675,2.674l-0,4.012l2.674,6.686l2.674,-9.36c0,-0 12.035,2.674 17.383,-8.023c0,-0 1.337,4.011 8.023,2.674l10.697,18.72c0,0 1.337,-8.299 6.018,-9.498c4.68,-1.199 2.005,-11.896 2.005,-11.896c0,-0 -4.011,-4.012 -4.011,-6.686c-0,-2.674 -4.012,-5.349 -6.686,-5.349c-2.674,0 -9.36,-5.348 -9.36,-5.348l-2.674,1.337Z" style="fill:#2f2e41;fill-rule:nonzero;"/><path d="M646.201,103.071l-6.225,-3.691l-4.472,2.354c-0,0 -5.349,2.674 -6.686,12.034c-1.337,9.36 -14.709,66.858 -14.709,66.858c0,-0 -1.337,9.36 5.349,25.406c6.685,16.045 32.091,44.126 32.091,44.126l24.069,-20.058l-36.103,-44.126l9.36,-36.103l-2.674,-46.8Z" style="fill:#2f2e41;fill-rule:nonzero;"/><path d="M730.441,92.374l10.697,0l17.383,65.52l5.349,81.566l-25.406,-9.36l-0,-58.834l-8.023,-78.892Z" style="fill:#2f2e41;fill-rule:nonzero;"/></svg>