<svg viewBox="0 0 800 600" xmlns="http://www.w3.org/2000/svg" fill-rule="evenodd" clip-rule="evenodd" stroke-miterlimit="10"><path d="M720.179 480.715c4.373-8.097-.589-18.006-6.286-25.227-5.698-7.221-12.647-14.722-12.514-23.916.213-13.251 14.236-21.017 25.447-28.024a124.484 124.484 0 0022.82-18.367c2.746-2.812 5.411-5.815 7.015-9.4 2.319-5.153 2.253-11.042 2.106-16.702-.491-18.86-1.421-37.7-2.79-56.52" fill="none" stroke="#3f3d56" stroke-width="2.94"/><path d="M777.324 301.529a20.628 20.628 0 00-10.305-16.879l-4.616 9.127.14-11.041a20.602 20.602 0 00-5.822-.84c-11.307 0-20.612 9.305-20.612 20.612 0 11.307 9.305 20.611 20.612 20.611 11.307 0 20.611-9.304 20.611-20.611 0-.322-.007-.643-.023-.964l.015-.015zM740.57 441.016a20.637 20.637 0 01-18.309 11.145c-11.307 0-20.612-9.304-20.612-20.611s9.305-20.611 20.612-20.611c8.606 0 16.347 5.39 19.332 13.463l-12.867 10.475 14.155-3.283c0 3.281-.793 6.514-2.311 9.422zM730.397 401.001c-.322.015-.643.022-.965.022-10.944 0-20.077-8.716-20.589-19.647a20.37 20.37 0 011.781-9.386 20.626 20.626 0 0113.251-11.417l-.103 8.495 4.667-9.239h.051c.321-.015.643-.022.964-.022 11.308 0 20.612 9.304 20.612 20.612 0 10.943-8.716 20.077-19.647 20.589l-.022-.007zM780.423 367.721c-.323.015-.646.022-.969.022-11.307 0-20.612-9.304-20.612-20.611s9.305-20.611 20.612-20.611c3.531 0 7.003.907 10.082 2.634l-3.68 9.975 7.494-7.192a20.56 20.56 0 016.625 14.229 20.112 20.112 0 01-.523 5.676c-2.091 8.914-9.884 15.417-19.029 15.878z" fill="#6c63ff" fill-rule="nonzero"/><path d="M774.549 307.02c-4.755.523-9.378 2.002-14.156 2.304-4.777.302-10.011-.854-13.036-4.564-1.627-1.995-2.437-4.527-3.813-6.706a14.682 14.682 0 00-5.19-4.888 20.623 20.623 0 00-2.226 9.318c0 11.307 9.304 20.611 20.611 20.611 9.665 0 18.096-6.798 20.144-16.244-.781.029-1.561.088-2.334.169zM780.423 367.721c-.323.015-.646.022-.97.022-11.307 0-20.611-9.304-20.611-20.611 0-3.047.676-6.057 1.978-8.812a15.236 15.236 0 014.145 4.152c1.472 2.208 2.355 4.777 4.085 6.809 3.202 3.776 8.686 5.013 13.663 4.777 4.976-.235 9.775-1.634 14.722-2.09a31.809 31.809 0 012.076-.125c-2.097 8.934-9.921 15.442-19.088 15.878zM730.397 401.001c-.322.015-.643.022-.965.022-10.944 0-20.077-8.716-20.589-19.647a20.37 20.37 0 011.781-9.386 16.729 16.729 0 014.358 4.189c1.598 2.26 2.599 4.858 4.468 6.949 3.475 3.872 9.32 5.233 14.59 5.108 5.109-.11 10.019-1.362 15.091-1.752-2.554 8.285-10.075 14.112-18.734 14.517zM740.57 441.016a20.636 20.636 0 01-18.222 10.978c-11.307 0-20.611-9.304-20.611-20.611 0-2.451.437-4.882 1.291-7.18a20.574 20.574 0 014.519 4.034c1.959 2.392 3.254 5.094 5.521 7.324 4.211 4.13 11.042 5.838 17.071 6 3.485.021 6.967-.16 10.431-.545z" fill-opacity=".1" fill-rule="nonzero"/><ellipse cx="406.482" cy="499.957" rx="375.421" ry="37.542" fill="#6c63ff" fill-opacity=".1"/><path d="M66.873 144.205a13.395 13.395 0 013.32-12.403l4.549 4.836-2.112-6.853a13.384 13.384 0 017.245-2.131c7.342 0 13.383 6.041 13.383 13.382 0 7.342-6.041 13.383-13.383 13.383-6.149 0-11.546-4.239-13.002-10.214z" fill="#6c63ff" fill-rule="nonzero"/><path d="M69.612 147.12c3.054-.544 6.212-.471 9.238-1.163 3.025-.692 6.088-2.363 7.287-5.226.648-1.546.692-3.269 1.149-4.881a9.487 9.487 0 012.341-3.997 13.396 13.396 0 013.654 9.193c0 7.346-6.044 13.39-13.39 13.39a13.403 13.403 0 01-11.766-6.999c.493-.118.986-.228 1.487-.317z" fill-opacity=".1" fill-rule="nonzero"/><path d="M691.22 64.506c3-2.135 6.889-2.599 10.306-1.23l-2.275 4.866 4.513-3.636a10.815 10.815 0 014.549 8.81c0 5.928-4.878 10.806-10.806 10.806-5.928 0-10.806-4.878-10.806-10.806 0-3.497 1.697-6.785 4.549-8.81h-.03z" fill="#6c63ff" fill-rule="nonzero"/><path d="M689.858 67.435c1.326 2.128 2.209 4.513 3.637 6.581 1.428 2.069 3.6 3.858 6.11 3.894 1.347 0 2.657-.456 3.997-.596a7.773 7.773 0 013.68.552 10.829 10.829 0 01-9.812 6.269c-5.932 0-10.813-4.881-10.813-10.814 0-2.523.883-4.968 2.495-6.909.257.331.493.67.706 1.023z" fill-opacity=".1" fill-rule="nonzero"/><path d="M736.609 117.587a12.526 12.526 0 0111.926-1.42l-2.628 5.631 5.226-4.218a12.522 12.522 0 015.252 10.191c0 6.865-5.649 12.514-12.514 12.514-6.865 0-12.514-5.649-12.514-12.514 0-4.043 1.96-7.845 5.252-10.191v.007z" fill="#6c63ff" fill-rule="nonzero"/><path d="M735.027 120.973c1.538 2.466 2.561 5.234 4.218 7.627 1.656 2.392 4.159 4.46 7.066 4.512 1.568 0 3.077-.537 4.638-.699a8.942 8.942 0 014.277.647 12.532 12.532 0 01-11.345 7.232c-6.865 0-12.514-5.649-12.514-12.514a12.52 12.52 0 012.865-7.968c.279.368.544.759.795 1.163z" fill-opacity=".1" fill-rule="nonzero"/><path d="M115.155 405.491c-6.47-6.529-4.512-17.446-1.082-25.978 3.431-8.531 7.98-17.667 5.241-26.5-3.93-12.617-19.588-16.15-32.315-19.706a124.126 124.126 0 01-27.053-11.152c-3.43-1.914-6.831-4.049-9.385-7.037-3.681-4.299-5.278-9.96-6.736-15.459a1186.597 1186.597 0 01-13.25-55.003" fill="none" stroke="#3f3d56" stroke-width="2.94"/><path d="M9.795 249.706a20.628 20.628 0 015.108-19.102l7.001 7.457-3.247-10.564a20.617 20.617 0 0111.188-3.3c11.307 0 20.611 9.304 20.611 20.611s-9.304 20.611-20.611 20.611c-9.465 0-17.772-6.519-20.021-15.713h-.029zM84.415 373.153a20.618 20.618 0 0014.924 6.395c11.307 0 20.611-9.304 20.611-20.611s-9.304-20.612-20.611-20.612c-10.773 0-19.821 8.446-20.563 19.193l15.304 6.412-14.509.846a20.408 20.408 0 004.844 8.377zM82.884 331.894c9.2-2.245 15.727-10.555 15.727-20.024 0-11.308-9.305-20.612-20.612-20.612l-.268.002 2.495 8.097-7.029-7.523h-.052c-9.327 2.145-15.992 10.517-15.992 20.087 0 11.307 9.305 20.611 20.612 20.611a20.6 20.6 0 005.148-.653l-.029.015zM25.496 314.072c9.202-2.243 15.73-10.554 15.73-20.025 0-11.307-9.304-20.611-20.611-20.611a20.621 20.621 0 00-14.744 6.208l6.309 8.576-9.217-4.792a20.557 20.557 0 00-2.37 15.532 20.289 20.289 0 002.098 5.3c4.545 7.972 13.892 11.993 22.805 9.812z" fill="#6c63ff" fill-rule="nonzero"/><path d="M14.005 254.189c4.711-.839 9.57-.736 14.229-1.789 4.66-1.052 9.371-3.636 11.219-8.046 1.001-2.377 1.067-5.035 1.766-7.515a14.775 14.775 0 013.6-6.154 20.618 20.618 0 015.549 14.069c0 11.307-9.305 20.611-20.612 20.611a20.635 20.635 0 01-18.062-10.683c.78-.184 1.546-.324 2.311-.493zM25.496 314.072c9.203-2.242 15.733-10.553 15.733-20.026 0-5.054-1.859-9.936-5.221-13.71a15.225 15.225 0 00-2.805 5.153c-.78 2.532-.913 5.241-1.995 7.685-2.017 4.527-6.927 7.258-11.778 8.443-4.851 1.185-9.842 1.185-14.722 2.142-.677.14-1.355.287-2.032.471 4.538 7.99 13.895 12.025 22.82 9.842zM82.884 331.894c9.199-2.245 15.725-10.555 15.725-20.024 0-4.908-1.753-9.658-4.941-13.389a16.634 16.634 0 00-2.996 5.249c-.898 2.62-1.126 5.396-2.334 7.928-2.208 4.689-7.464 7.648-12.514 9.017-4.932 1.333-9.996 1.517-14.972 2.577 4.782 7.213 13.621 10.68 22.032 8.642zM84.415 373.153a20.618 20.618 0 0014.908 6.379c11.307 0 20.611-9.305 20.611-20.612 0-4.514-1.483-8.905-4.219-12.495a20.23 20.23 0 00-3.202 5.153c-1.208 2.841-1.679 5.8-3.232 8.575-2.871 5.153-8.914 8.716-14.678 10.578a90.103 90.103 0 01-10.188 2.422z" fill-opacity=".1" fill-rule="nonzero"/><path d="M723.926 114.017l-.162 366.801c-25.764 0 0 0-26.014.133h-96.807l-.295-.118a59.683 59.683 0 00-45.072 0l-.243.103h-97.014a124.08 124.08 0 01-9.569-4.358 57.993 57.993 0 00-52.073 0 137.723 137.723 0 01-9.57 4.358H290.02l-.242-.103a59.686 59.686 0 00-45.073 0l-.294.118h-96.793a130.299 130.299 0 01-44.027-29.578V114.017h620.335z" fill="#fff" fill-rule="nonzero"/><path d="M723.926 99.67v15.819H103.584V99.67v-.007c0-2.976 2.449-5.425 5.425-5.425H718.479l.022-.001c2.976 0 5.425 2.45 5.425 5.426v.007z" fill="#ededf4" fill-rule="nonzero"/><circle cx="113.418" cy="104.705" r="2.54" fill="#fa5959" fill-opacity=".8"/><circle cx="120.396" cy="104.705" r="2.54" fill="#fed253" fill-opacity=".8"/><circle cx="127.368" cy="104.705" r="2.54" fill="#8ccf4d" fill-opacity=".8"/><path d="M184.91 115.489v366.198s-33.125-.133-81.319-.869V115.489h81.319zM724.832 115.489V482.29c-.31.228-29.622-.338-30.917.133H643.49V115.489h81.342z" fill="#ededf4" fill-rule="nonzero"/><path fill="#fff" d="M114.802 133.37h58.89v7.361h-58.89zM114.802 150.3h58.89v7.361h-58.89zM114.802 167.231h58.89v7.361h-58.89zM114.802 184.162h58.89v7.361h-58.89zM114.802 201.093h58.89v7.361h-58.89zM114.979 251.149h58.89v7.361h-58.89zM114.979 268.08h58.89v7.361h-58.89zM114.979 285.01h58.89v7.361h-58.89zM114.979 301.941h58.89v7.361h-58.89zM114.979 318.872h58.89v7.361h-58.89zM115.148 368.928h58.89v7.361h-58.89zM115.148 385.859h58.89v7.361h-58.89zM115.148 402.789h58.89v7.361h-58.89zM115.148 419.72h58.89v7.361h-58.89zM115.148 436.651h58.89v7.361h-58.89zM647.929 118.647h7.361v7.361h-7.361zM656.763 118.647h7.361v7.361h-7.361zM665.596 118.647h7.361v7.361h-7.361zM674.429 118.647h7.361v7.361h-7.361zM683.263 118.647h7.361v7.361h-7.361zM647.929 149.564h7.361v7.361h-7.361zM656.763 149.564h7.361v7.361h-7.361zM665.596 149.564h7.361v7.361h-7.361zM674.429 149.564h7.361v7.361h-7.361zM683.263 149.564h7.361v7.361h-7.361zM647.929 180.481h7.361v7.361h-7.361zM656.763 180.481h7.361v7.361h-7.361zM665.596 180.481h7.361v7.361h-7.361zM674.429 180.481h7.361v7.361h-7.361zM683.263 180.481h7.361v7.361h-7.361zM647.929 211.398h7.361v7.361h-7.361zM656.763 211.398h7.361v7.361h-7.361zM665.596 211.398h7.361v7.361h-7.361zM674.429 211.398h7.361v7.361h-7.361zM683.263 211.398h7.361v7.361h-7.361zM647.929 242.315h7.361v7.361h-7.361zM656.763 242.315h7.361v7.361h-7.361zM665.596 242.315h7.361v7.361h-7.361zM674.429 242.315h7.361v7.361h-7.361zM683.263 242.315h7.361v7.361h-7.361zM647.929 273.232h7.361v7.361h-7.361zM656.763 273.232h7.361v7.361h-7.361zM665.596 273.232h7.361v7.361h-7.361zM674.429 273.232h7.361v7.361h-7.361zM683.263 273.232h7.361v7.361h-7.361zM647.929 304.149h7.361v7.361h-7.361zM656.763 304.149h7.361v7.361h-7.361zM665.596 304.149h7.361v7.361h-7.361zM674.429 304.149h7.361v7.361h-7.361zM683.263 304.149h7.361v7.361h-7.361zM647.929 335.066h7.361v7.361h-7.361zM656.763 335.066h7.361v7.361h-7.361zM665.596 335.066h7.361v7.361h-7.361zM674.429 335.066h7.361v7.361h-7.361zM683.263 335.066h7.361v7.361h-7.361zM647.929 365.983h7.361v7.361h-7.361zM656.763 365.983h7.361v7.361h-7.361zM665.596 365.983h7.361v7.361h-7.361zM674.429 365.983h7.361v7.361h-7.361zM683.263 365.983h7.361v7.361h-7.361zM647.929 396.9h7.361v7.361h-7.361zM656.763 396.9h7.361v7.361h-7.361zM665.596 396.9h7.361v7.361h-7.361zM674.429 396.9h7.361v7.361h-7.361zM683.263 396.9h7.361v7.361h-7.361zM647.929 427.817h7.361v7.361h-7.361zM656.763 427.817h7.361v7.361h-7.361zM665.596 427.817h7.361v7.361h-7.361zM674.429 427.817h7.361v7.361h-7.361zM683.263 427.817h7.361v7.361h-7.361zM647.929 458.734h7.361v7.361h-7.361zM656.763 458.734h7.361v7.361h-7.361zM665.596 458.734h7.361v7.361h-7.361zM674.429 458.734h7.361v7.361h-7.361zM683.263 458.734h7.361v7.361h-7.361z"/><path d="M436.287 197.265l-23.239 3.474-47.958 7.163-105.655 15.79-.376.051-34.597 227.829-.14.905 393.824-171.972 1.045-.456-182.904-82.784zm159.172 73.148l-12.132 4.593-17.887-8.693 12.035-4.041 17.984 8.141zm-192.4-63.689l.397-.059 4.417 2.731-3.011.486-5.358.861-4.101-2.834 6.287-.957 1.369-.228zm-3.762 5.094l3.894 2.694 1.966 1.362-1.966.39-1.472.295-3.894.772-5.638-4.365 6.669-1.074.441-.074zm6.14-.994l3.791-.618 5.955 3.68-8.65 1.723-1.906-1.318-3.894-2.694 4.704-.773zm16.835-2.724l7.538-1.214 5.616 2.944-8.097 1.612-3.018-1.722-2.68-1.531.641-.089zm7.125 5.705l3.467 1.981-.795.162-8.737 1.737-5.425-3.335 9.23-1.833 2.26 1.288zm-24.947 8.694l7.958-1.59 1.178.824.272.184 1.7 1.178-8.097 1.745-2.275-1.796-.169-.14-.567-.405zm9.342-1.862l9.341-1.863 2.208 1.355.413.25.633.39-9.423 2.039-1.56-1.082-.28-.199-1.332-.89zm-29.953 56.453l-18.315 4.829-5.307-9.386 17.306-4.188 6.316 8.745zm-6.92-9.651l-17.225 4.181-4.417-7.825 15.93-3.769.339-.081 4.218 5.889v.052l1.155 1.553zm55.599-32.632l1.694 1.178-4.196.905-4.954 1.06-.53.118-1.348-1.045-1.56-1.215-6.625-5.153 8.649-1.973 6.198 4.292 2.672 1.833zm-30.445-1.178l1.133-.258 10.556-2.407 6.566 5.087 1.561 1.215 1.399 1.082-12.426 2.686-1.759-1.472-1.193-1.001-5.153-4.328-.684-.604zm22.252 5.528l1.141.884.398.309 5.639 4.365-12.735 3.018-6.957-5.889 12.514-2.687zm-14.722 2.15l-4.026.868h-.074l-21.105 4.564-.876.192-6.463-7.619 7.104-1.62 16.607-3.783 8.833 7.398zm-25.175 6.478l20.287-4.417 1.745-.375 4.115-.891 6.986 5.889-4.667 1.104-1.716.405-21.215 5.02-5.535-6.522-.169-.199.169-.014zm11.292 15.098l-10.821 2.62-6.92 1.678-5.381-7.486 12.065-2.856 4.932-1.163 6.125 7.207zm-10.799 3.68l11.535-2.79 6.934 8.178-18.197 4.8-.309.081-6.272-8.738 6.309-1.531zm5.786-11.13l21.347-5.05 1.716-.405 4.748-1.126 7.861 6.625-3.423.832-6.625 1.597-19.536 4.741-6.088-7.214zm29.055-6.875l12.771-3.018 2.687 2.083 5.609 4.35-5.609 1.362-7.604 1.84-7.854-6.617zm15.458-2.209l-1.421-1.104 1.421-.339 8.833-2.083 8.966 6.206-10.909 2.642-6.89-5.322zm0-2.488l-2.451.582-6.11-4.734-1.067-.809 2.709-.589 6.89-1.472h.125l7.567 5.241-7.663 1.781zm-21.222-13.986l-5.47-4.225 8.186-1.76 5.815 4.027-8.531 1.958zm-1.281.294l-9.518 2.172-1.472.331-.633.147-5.242-4.416 7.362-1.583 4.063-.876 5.44 4.225zm-12.867 2.945l-15.746 3.577-7.818 1.782-4.225-4.969 11.866-2.554 10.615-2.29 5.308 4.454zm-24.646 5.616l-8.951 2.039-6.228 1.421-3.768-5.248 9.79-2.106 4.91-1.089 4.247 4.983zm-8.914 3.077l9.65-2.208 6.427 7.589-15.805 3.423-.441.096-5.485-7.641 5.654-1.259zm16.813 6.257l1.34 1.576 4.379 5.153-4.21 1.037-12.683 2.945-5.153-7.199 16.327-3.512zm14.428 15.422l18.094-4.417 7.839-1.906 3.857-.935 7.862 6.625.589.493-.589.155-30.74 8.097-6.912-8.112zm37.66-1.929l-6.625-5.594 6.625-1.605 6.625-1.612 8.715 6.765-13.552 3.578-1.788-1.532zm7.898-9.12l10.998-2.665 9.187 6.36-11.506 3.033-8.679-6.728zm12.323-2.981l12.632-3.063 9.658 5.934-13.14 3.503-9.15-6.374zm-1.119-.781l-8.951-6.198 11.778-2.79 9.687 5.956-12.514 3.032zm-10.092-6.978l-7.538-5.219 11.285-2.437 7.972 4.859-11.719 2.797zm-8.679-6.007l-.346-.243-10.188-7.052 10.055-2.296.133.081 11.52 7.088-11.174 2.422zm-11.668-8.097l-5.793-4.012 9.57-2.061 6.19 3.806-9.967 2.267zm-20.14-4.417l2.451 1.892-3.018.648-1.472.316-6.861 1.473-3.018-2.54 3.681-.736 1.354-.265h.059l4.748-.95 1.473-.287.397.317.206.132zm-19.875 3.386l6.706-1.339 3.04 2.561-9.658 2.084-12.602 2.76-2.554-3.011 15.068-3.055zm-13.626 6.257l-4.232.913-10.402 2.209-2.363-3.298 12.64-2.525 1.788-.354 2.569 3.055zm-15.716 3.387l-13.25 2.848-2.039-3.592 12.897-2.576 2.392 3.32zm.648.898l3.776 5.263-13.986 3.187-3.151-5.572 13.361-2.878zm4.417 6.154l5.476 7.626-15.223 3.298-4.357-7.708 14.104-3.216zm6.124 8.531l.965 1.318 4.203 5.889-.39.088-15.761 3.732-4.365-7.722 15.348-3.305zm-7.052 20.023l-18.867 4.63-3.452-8.164 17.888-4.232 4.431 7.766zm.515.92l5.323 9.4-20.038 5.352-4.262-10.085 18.977-4.667zm5.838 10.305l6.338 11.219-21.421 6.095-5.079-11.94 20.162-5.374zm1.016-.265l18.403-4.858 7.53 10.475-19.603 5.58-6.33-11.197zm19.485-5.152l18.602-4.859 8.303 9.783-19.441 5.529-7.464-10.453zm19.713-5.153l30.012-7.921 1.538-.405 10.151 8.62-33.434 9.511-8.267-9.805zm32.728-8.664l13.633-3.556 10.526 8.156-13.986 3.983-10.173-8.583zm14.855-3.916l11.586-3.055 11.145 7.721-12.227 3.475-10.504-8.141zm12.875-3.32l13.25-3.49 11.778 7.236-13.891 3.953-11.137-7.699zm14.612-3.865l11.851-3.121 12.065 6.883-12.168 3.459-11.748-7.221zm-1.193-.736l-9.621-5.889 11.55-2.827 9.842 5.617-11.771 3.099zm-10.836-6.669l-9.68-5.948 11.042-2.613 10.122 5.771-11.484 2.79zm-10.902-6.706l-7.942-4.844 10.806-2.341 8.097 4.616-10.961 2.569zm-9.172-5.639l-11.674-7.177 9.915-2.26 12.514 7.125-10.755 2.312zm-12.911-7.943h-.044l-6.147-3.776 6.125-1.318 3.548-.736 6.352 3.629-9.834 2.201zm-.044-6.146l-3.298.736h-.074l-4.026.898-.464-.287-.427-.265-2.319-1.428 8.495-1.693 1.112-.221 3.202 1.825-2.201.435zm-13.324-.876l-9.231 1.84-4.954-3.438 8.76-1.737 5.425 3.335zm-10.615 2.112l-7.854 1.568-.229-.176-1.472-1.141-2.841-2.209 2.841-.567 1.472-.294 3.122-.618 4.961 3.437zm-9.569 1.539l.382.294-.382.074-10.88 2.171-4.255-3.585 10.968-2.208 4.167 3.254zm-12.146 2.79l-5.889 1.185-15.584 3.106-2.319-2.731-.964-1.075.868-.169 13.987-2.782 5.646-1.127 4.255 3.593zm-23.784 3.194l1.126 1.325-14.318 2.864-2.797-3.902 13.905-2.76 2.084 2.473zm-14.296 4.417l-12.772 2.547-2.267-4.004 12.242-2.437 2.797 3.894zm-13.824 2.761l-14.281 2.848-1.737-4.122 13.743-2.724 2.275 3.998zm.53.927l2.039 3.607-14.789 3.187-1.656-3.923 14.406-2.871zm2.561 4.535l3.166 5.587-15.569 3.548-2.503-5.926 14.906-3.209zm3.681 6.507l4.351 7.692-16.769 3.629-3.269-7.744 15.687-3.577zm4.873 8.62l4.358 7.729-17.763 4.203-3.503-8.288 16.908-3.644zm-10.526 21.296l-18.977 4.6-2.43-8.524 17.947-4.247 3.46 8.171zm.397.949l4.27 10.1-20.317 5.359-3.07-10.828 19.117-4.631zm4.667 11.042l5.057 11.955-21.877 6.22-3.614-12.786 20.434-5.389zm5.455 12.897l5.889 13.986-23.608 7.258-4.24-14.965 21.959-6.279zm.986-.28l21.539-6.132 7.413 13.096-23.041 7.022-5.911-13.986zm22.518-6.411l19.728-5.617 8.789 12.249-21.112 6.441-7.405-13.073zm20.766-5.889l19.529-5.551 9.783 11.521-20.537 6.264-8.775-12.234zm20.611-5.889l33.648-9.57 12.029 10.129-35.894 10.961-9.783-11.52zM449 273.196l14.06-3.998 12.514 9.68-14.538 4.417L449 273.196zm15.267-4.344l12.323-3.452 13.25 9.172-13.088 3.99-12.485-9.71zm13.582-3.857l13.986-3.975 13.986 8.62-14.781 4.505-13.191-9.15zm15.304-4.358l12.234-3.474 14.428 8.237-12.654 3.857-14.008-8.62zm13.618-3.857l11.454-3.261 14.847 7.832-11.91 3.637-14.391-8.208zm-1.229-.736l-12.021-6.839 11.042-2.907 12.388 6.529-11.409 3.217zm-13.302-7.575l-9.805-5.587 10.718-2.598 10.048 5.3-10.961 2.885zm-11.086-6.323l-10.122-5.771 10.159-2.4 10.607 5.595-10.644 2.576zm-11.41-6.507l-8.053-4.594 9.893-2.134 8.245 4.343-10.085 2.385zm-9.349-5.322l-12.514-7.133 8.952-2.047 13.367 7.052-9.805 2.128zm-13.817-7.877l-6.33-3.614 8.664-1.87 6.551 3.46-8.885 2.024zm-7.655-4.365l-3.173-1.811 8.591-1.715 3.172 1.671-8.59 1.855zm-4.513-2.577l-5.734-3.275 8.178-1.62 6.066 3.195-8.51 1.7zm-8.612-3.739l-9.158 1.826-5.889-3.622 9.268-1.472 5.779 3.268zm-29.32 5.837l-10.902 2.165-5.712-4.807 10.924-1.767 5.69 4.409zm-12.168 2.422l-5.58 1.112-13.088 2.598-1.583.317-4.887-5.757 6.242-1.008 7.751-1.251 5.374-.869 5.771 4.858zm-21.392 4.248l-13.794 2.745-4.564-6.352 13.448-2.209 4.91 5.816zm-14.891 2.944l-12.117 2.407-3.938-6.912 11.461-1.855 4.594 6.36zm-13.169 2.621l-13.626 2.709-3.232-7.627 12.897-2.083 3.961 7.001zm-14.649 2.944l-13.405 2.665-2.356-8.318 12.514-2.025 3.247 7.678zm.405.95l1.744 4.122-14.074 2.805-1.2-4.233 13.53-2.694zm2.149 5.079l1.664 3.938-14.656 3.158-1.208-4.262 14.2-2.834zm2.069 4.888l2.502 5.933-15.51 3.533-1.781-6.279 14.789-3.187zm2.907 6.883l3.269 7.736-16.703 3.607-2.208-7.781 15.642-3.562zm3.681 8.686l3.511 8.303-17.829 4.218-2.51-8.885 16.828-3.636zm-12.625 22.26l-20.788 5.035-1.148-8.951 19.515-4.616 2.421 8.532zm.273.979l3.069 10.873-22.495 5.889-1.473-11.705 20.899-5.057zm3.349 11.822l3.629 12.809-24.505 6.971-1.767-13.81 22.643-5.97zm3.902 13.788l4.247 14.987-26.817 8.171-2.076-16.15 24.646-7.008zm4.519 15.959l5.153 18.167-29.555 9.923-2.554-19.875 26.956-8.215zm.972-.295l23.799-7.258 7.089 16.762-25.765 8.634-5.123-18.138zm24.792-7.582l23.151-7.059 8.746 15.458-24.822 8.333-7.075-16.732zm24.145-7.361l21.23-6.47 10.247 14.273-22.754 7.656-8.723-15.459zm22.231-6.757l20.611-6.287 11.263 13.25-21.664 7.273-10.21-14.236zm21.686-6.626l36.121-11.041 13.501 11.373-38.381 12.882-11.241-13.214zm37.277-11.365l14.597-4.417 13.891 10.762-15.009 5.035-13.479-11.38zm15.783-4.814l13.176-4.012 14.575 10.092-13.898 4.66-13.853-10.74zm14.413-4.417l14.877-4.535 15.215 9.415-15.576 5.227-14.516-10.107zm16.194-4.925l12.713-3.879 15.518 8.833-13.03 4.38-15.201-9.334zm14.053-4.284l11.969-3.681 15.819 8.341-12.315 4.137-15.473-8.797zm13.346-4.071l10.88-3.32 16.194 7.855-11.27 3.776-15.804-8.311zm-1.274-.677l-14.81-7.81 10.305-2.945 15.326 7.442-10.821 3.313zm-16.128-8.458l-12.352-6.515 9.834-2.606 12.75 6.191-10.232 2.93zm-13.677-7.214l-10.004-5.278 9.466-2.297 10.306 4.999-9.768 2.576zm-11.366-5.992l-10.593-5.587 8.834-2.098 11.123 5.403-9.364 2.282zm-11.954-6.309l-8.201-4.328 8.547-1.848 8.435 4.101-8.781 2.075zm-9.57-5.064l-13.397-7.067 7.552-1.715 14.31 6.949-8.465 1.833zm-14.774-7.788l-6.522-3.445 7.214-1.553 6.78 3.29-7.472 1.708zm-7.921-4.181l-3.135-1.657 7.103-1.413 3.165 1.531-7.133 1.539zm-4.563-2.407l-6.059-3.195 6.625-1.325 6.427 3.121-6.993 1.399zm-7.487-3.946l-5.535-2.945 6.625-1.067 5.513 2.68-6.603 1.332zm-7.03-3.681l-4.711-2.48 6.287-.965 4.932 2.4-6.508 1.045zm-1.663.273l-7.141 1.119-.971.154-4.557-2.591 2.091-.316 5.822-.891 4.756 2.525zm-9.688 1.568l-9.186 1.472-4.417-2.716 8.988-1.414 4.615 2.658zm-20.537 3.312l-7.008 1.134-3.828-2.945 6.706-1.023 4.13 2.834zm-8.37 1.325l-10.851 1.752-3.68-3.099 10.681-1.634 3.85 2.981zm-12.176 1.966l-5.307.861-6.831 1.104-6.971 1.126-2.893-3.408 9.731-1.472 3.482-.538 5.101-.772 3.688 3.099zm-20.316 3.253l-13.346 2.209-2.569-3.578 13.014-1.987 2.901 3.356zm-14.465 2.334l-11.336 1.833-2.128-3.762 10.887-1.663 2.577 3.592zm-12.404 2.002l-12.779 2.098-1.671-3.96 12.308-1.877 2.142 3.739zm-13.802 2.208l-12.396 2.003-1.171-4.13 11.889-1.811 1.678 3.938zm-13.405 2.216l-12.617 2.039-.567-4.365 12.006-1.833 1.178 4.159zm.28.986l2.356 8.333-13.987 2.776-1.141-9.077 12.772-2.032zm2.635 9.312l1.2 4.24-14.722 2.945-.567-4.373 14.089-2.812zm1.472 5.219l1.208 4.277-15.518 3.342-.596-4.652 14.906-2.967zm1.473 5.256l1.781 6.294-16.585 3.784-.861-6.706 15.665-3.372zm2.061 7.273l2.208 7.774-17.932 3.879-1.008-7.84 16.732-3.813zm2.473 8.753l2.562 8.914-19.375 4.579-1.222-9.57 18.035-3.923zm-16.562 23.688l-22.298 5.403.162-9.4 20.987-4.962 1.149 8.959zm.132 1.016l1.472 11.726-24.122 6.346.22-12.662 22.43-5.41zm1.634 12.742l1.774 13.824-26.375 7.501.265-14.913 24.336-6.412zm1.899 14.84l2.076 16.195-28.9 8.833.309-17.438 26.515-7.59zm2.209 17.196l2.547 19.875-31.992 10.755.39-21.774 29.055-8.856zm2.679 20.921l3.269 25.447-35.908 13.604.5-28.267 32.139-10.784zm.987-.332l29.702-9.967 6.485 22.908-32.926 12.47-3.261-25.411zm30.666-10.305l25.868-8.679 8.833 20.861-28.215 10.689-6.486-22.871zm26.861-9.018l24.933-8.34 10.754 19.014-26.89 10.18-8.797-20.854zm25.919-8.701l22.82-7.663 12.448 17.343-24.528 9.327-10.74-19.007zm23.858-8.001l21.745-7.295 13.537 15.944-22.864 8.657-12.418-17.306zm22.819-7.649l38.588-12.948 15.856 13.361-40.936 15.502-13.508-15.915zm39.714-13.323l15.024-5.021 16.195 12.514-15.459 5.845-15.76-13.338zm16.195-5.44l13.986-4.689 16.813 11.638-14.649 5.55-16.15-12.499zm15.179-5.094l15.657-5.256 17.394 10.696-16.29 6.168-16.761-11.608zm16.93-5.676l13.088-4.417 17.557 10.012-13.309 5.042-17.336-10.637zm14.377-4.829l12.381-4.151 17.733 9.356-12.617 4.777-17.497-9.982zm13.677-4.593l11.336-3.799 17.961 8.724-11.623 4.416-17.674-9.341zm23.394-8.915l-11.984 4.02-16.143-7.803 11.777-3.585 16.35 7.368zm-17.733-8.016l-11.705 3.563-15.289-7.428 11.336-3.224 15.658 7.089zm-17.093-7.722l-11.27 3.21-12.713-6.176 11.042-2.945 12.941 5.911zm-14.443-6.537l-10.939 2.886-10.246-4.976 10.784-2.613 10.401 4.703zm-11.903-5.388l-10.718 2.599-11.115-5.396 10.269-2.429 11.564 5.226zm-13.081-5.889l-10.195 2.407-8.392-4.107 10.092-2.209 8.495 3.909zm-10.048-4.549l-10.011 2.113-14.34-6.964 9.121-2.054 15.23 6.905zm-16.702-7.597l-9.069 2.061-6.75-3.275 8.207-1.767-.11-.515 7.722 3.496zm-8.473-3.835l-8.833 1.899-3.122-1.516 7.553-1.509-.191-.957 4.593 2.083zM461.993 210l-8.834 1.752-6.426-3.121 8.51-1.686 6.75 3.055zm-8.341-3.777l-8.406 1.679-5.462-2.636 8.627-1.391 5.241 2.348zm-6.868-3.106l-8.538 1.377-4.947-2.4 8.399-1.281 5.086 2.304zm-10.607-4.8l3.865 1.745-8.355 1.296-3.681-1.796 8.171-1.245zm-9.923 1.473l3.681 1.803-6.191.942-3.511-1.847 6.021-.898zm-12.094 1.803l4.416-.655 3.519 1.855-5.396.825-2.429.375-3.342-1.914 3.232-.486zm-4.866.736l3.349 1.914-8.936 1.362-3.195-1.958 8.782-1.318zm-10.306 1.546l3.202 1.973-7.928 1.207-2.944-2.031 7.67-1.149zm-9.128 1.369l2.945 2.032-6.625 1.009-2.702-2.091 6.382-.95zm-7.758 1.156l2.709 2.098-10.608 1.619-2.635-2.134 10.534-1.583zm-16.931 2.532l.258-.036 4.858-.737 2.554 2.157-5.02.736-2.562.39-10.46 1.598-1.958-2.304 12.33-1.804zm-13.567 1.995l1.966 2.304-12.912 1.973-1.722-2.363 12.668-1.914zm-13.787 2.061l1.715 2.385-10.762 1.642-1.399-2.466 10.446-1.561zm-11.521 1.715l1.399 2.474-12.183 1.862-1.082-2.561 11.866-1.775zm-12.904 1.929l1.09 2.562-11.778 1.796-.736-2.65 11.424-1.708zm-12.44 1.863l.736 2.65-11.852 1.81-.353-2.753 11.469-1.707zm-25.028 3.732l12.514-1.87.353 2.753-12.941 1.973.074-2.856zm-.066 3.886l13.117-1.936.56 4.38-13.729 2.209.052-4.653zm-.104 5.632l13.884-2.246 1.163 9.084-15.172 3.055.125-9.893zm-.125 10.931l15.334-3.04.559 4.372-16.01 3.195.117-4.527zm-.095 5.543l16.157-3.217.597 4.66-16.85 3.629.096-5.072zm-.111 6.117l16.997-3.68.861 6.713-17.983 4.1.125-7.133zm-.147 8.193l18.131-4.129 1.008 7.824-19.279 4.167.14-7.862zm19.264 4.704l1.23 9.57-20.833 4.932.184-10.306 19.419-4.196zm-34.531-42.592l14.965-2.208-.051 2.856-15.363 2.348.449-2.996zm-.604 4.019l15.459-2.37-.081 4.608-16.151 2.613.773-4.851zm-.898 5.889l16.298-2.635-.214 9.93-17.762 3.534 1.678-10.829zm-1.803 11.874l17.902-3.563-.073 4.512-18.536 3.681.707-4.63zm-.906 5.727l18.676-3.725-.089 5.087-19.426 4.181.839-5.543zm-1.001 6.625l19.566-4.211-.125 7.163-20.611 4.696 1.17-7.648zm-1.325 8.723l20.751-4.726-.139 7.847-21.804 4.719 1.192-7.84zm-1.354 8.944l21.943-4.748-.184 10.342-23.452 5.543 1.693-11.137zm-1.855 12.219l23.6-5.594-.17 9.408-24.925 6.05 1.495-9.864zm-1.664 10.954l25.08-6.073-.258 12.639-26.927 7.104 2.105-13.67zm-2.208 14.803l27.074-7.14-.265 14.928-29.253 8.326 2.444-16.114zm-2.614 17.211l29.408-8.363-.309 17.468-31.962 9.739 2.863-18.844zm-3.062 19.897l32.102-9.783-.382 21.796-35.334 11.859 3.614-23.872zm30.498 79.376l-45.588 19.875 6.323-41.65 39.92-15.12-.655 36.895zm-39.096-22.886l4.8-31.462 35.496-11.91-.464 28.311-39.832 15.061zm40.119 22.437l.655-36.806 36.07-13.655 4.21 32.632-40.935 17.829zm41.87-18.278l-4.173-32.544 33.073-12.514 8.171 28.878-37.071 16.18zm38.014-16.607l-8.164-28.826 28.333-10.726 10.968 25.956-31.137 13.596zm32.072-13.986l-10.953-25.912 27.001-10.232 13.25 23.365-29.298 12.779zm30.181-13.191l-13.191-23.313 24.66-9.342 15.105 21.053-26.574 11.602zm27.524-12.021l-15.032-21.039 22.952-8.686 16.261 19.139-24.181 10.586zm25.123-10.976l-16.194-19.139 41.134-15.576 18.617 15.686-43.557 19.029zm44.565-19.463l-18.55-15.628 15.458-5.889 18.889 14.634-15.797 6.883zm16.835-7.361l-18.815-14.583 14.722-5.572 19.434 13.456-15.341 6.699zm16.43-7.177l-19.367-13.42 16.371-6.198 19.876 12.242-16.88 7.376zm18.035-7.877l-19.875-12.19 13.368-5.064 19.934 11.373-13.427 5.881zm14.627-6.389l-19.875-11.329 12.668-4.8 19.993 10.542-12.786 5.587zm13.986-6.103l-19.919-10.504 11.675-4.417 20.081 9.754-11.837 5.167zm13.066-5.705l-20-9.716 12.183-4.616 19.956 9.032-12.139 5.3z" fill="#ededf4" fill-rule="nonzero"/><path d="M435.191 218.45v47.303l-50.564 11.418-17.94-22.835-1.582-45.683-.044-1.613 45.661-8.156 24.469 19.566z" fill="#ededf4" fill-rule="nonzero"/><path d="M435.191 218.782v46.971l-50.027 11.3-.537.118-17.94-22.835-1.582-45.683 18.704 17.136 51.382-7.007z" fill-opacity=".1" fill-rule="nonzero"/><path d="M435.191 218.929v46.824l-50.027 11.3-1.355-51.264 50.565-6.522.817-.338z" fill-opacity=".1" fill-rule="nonzero"/><path d="M407.409 214.277l-2.488-4.321-2.488-4.314-2.495 4.314-2.488 4.321h4.247v19.941h1.472v-19.941h4.24zM422.588 255.669l-2.488-4.321-1.722 2.988-12.868-12.19-1.008 1.067 13.117 12.433-.014.023-2.488 4.313h9.959l-2.488-4.313zM428.507 232.495l-4.682-1.715.78 4.498-16.783 2.996.257 1.45 16.776-2.996.678 3.872 3.82-3.195 3.828-3.194-4.674-1.716z" fill="#6c63ff" fill-rule="nonzero"/><path d="M228.739 281.079c-1.237-8.281-8.753-27.589-8.753-27.589a26.496 26.496 0 00-.449-1.716c-5.337-18.351-12.727-19.978-12.727-19.978l-26.457-5.638c.214.14.399.32.545.53-.132 0-.272 0-.419.058a10.362 10.362 0 01-2.319-5.013 14.258 14.258 0 01-.133-.846 18.617 18.617 0 005.617-13.323 18.62 18.62 0 00-7.98-15.275c1.252-1.325 1.289-3.173.361-5.013-2.091-4.336-6.625-7.074-11.277-8.407-3.563-1.023-7.428-1.354-10.954-.235a39.976 39.976 0 00-5.727 2.657c-3.518 1.759-7.361 3.143-10.033 6.029a2.991 2.991 0 00-1.001 2.422 6.52 6.52 0 00.994 1.759c.736 1.318.559 2.981.051 4.417-.508 1.435-1.273 2.768-1.634 4.24-.361 1.472-.221 3.202.883 4.255.531.419 1.084.809 1.657 1.17a8.89 8.89 0 011.575 1.767l3.136 4.232a43.492 43.492 0 013.916 5.97 28.982 28.982 0 002.429 4.549c.306.402.656.768 1.045 1.09l-.309-.118a4.747 4.747 0 003.504 1.347h.162a.95.95 0 00.633-.257v.581c.059 2.032.044 4.196-.096 6.228l-.243-.125a2.13 2.13 0 00-2.282.243l-24.372 19.543s-5.3 7.251-4.557 19.751l-4.27 18.756s-5.344 15.915-1.236 27.288a4293.696 4293.696 0 006.485 17.858s1.649 12.912 4.108 13.986c2.458 1.075 3.533 1.627 3.533 1.627l.493 3.085s.162.301.449.809c1.796 3.121 8.443 14.134 12.308 12.956.482 2.993.692 6.023.626 9.054l3.82 25.654s2.665 6.986 2.503 10.637c-.162 3.651 3.121 8.833 3.121 8.833a16.937 16.937 0 00-1.641 11.94c1.56 6.817 3.533 38.323 3.533 38.323l2.871 7.633-.059 8.885a8.592 8.592 0 01-1.767 3.968c-1.847 2.002-1.722 4.321-6.161 7.059-4.439 2.739-7.265 3.776-7.265 7.428a9.566 9.566 0 01-.133 1.472c-.412 2.672-1.215 4.107 6.971 4.888a21.553 21.553 0 0016.011-5.359c4.383-3.889 1.42-2.562 8.097-3.593 0 0 2.275-.125 2.4-2.134.044-.692.037-2.025 0-3.482-.111-2.79-.376-6.036-.736-6.198-.361-.162-1.222-3.004-1.473-4.019h1.848s1.73-12.912 0-21.274c-1.73-8.363-.162-14.288-.162-14.288l-.331-22.084s-2.297-2.437-.493-6.743c1.803-4.306 0-25.573 0-25.573s.662-7.633 2.547-9.422c1.884-1.789.095-11.182 0-11.667l3.364 11.262s1.472 22.415 4.6 26.501l.898 10.143s6.405 9.342 5.153 14.377c-1.251 5.035 1.318 23.224 1.318 23.224v18.595s-2.878 7.464 1.148 10.143l1.73-.066c-.589.53-1.008 1.332-1.671 2.017-.773.795-1.207 3.806-1.472 6.397-.206 2.208-.272 4.078-.272 4.078a6.76 6.76 0 004.932 2.944c3.202.185 13.794 8.282 13.794 8.282s10.475 0 13.184-.545h.155a3.583 3.583 0 002.046-1.671 4.227 4.227 0 00.494-3.07c-.332-1.604-1.605-3.356-4.417-4.851-7.03-3.68-8.097-7.177-8.097-7.177l-4.594-6.897h.655s-.412-7.302 4.594-15.51l-.324-36.18s2.054-12.426-1.472-19.14c0 0-.288-7.147 2.068-9.334 2.356-2.186-3.136-24.365-3.136-24.365s-1.126-11.896-2.481-22.754c5.543 5.256 11.3-13.677 12.264-17.033h.14s0-.096-.066-.251l.066-.243s-1.229-4.379-.331-3.489c.898.891 3.121-2.436 3.121-2.436s-.324-18.109 3.533-27.237c3.858-9.128-1.707-31.322-1.707-31.322zm-16.512 11.557v-.044c.575 11.042-.11 34.649-.11 34.649s-.736 3.019-1.575 6.581l-.582-22.414-.552-21.112 2.819 2.34zm-70.667-7.618s2.79 34.914 0 39.949c-.795 1.428-1.472 3.982-2.017 6.897-.92-2.422-2.871-8.097-2.208-11.123.898-3.894-1.811-14.126-1.811-14.369 0-.242-.243-5.682 1.73-9.864 1.972-4.181.655-5.969.655-5.969s1.649-6.861 3.621-5.558l.03.037z" fill="url(#_Linear1)" fill-rule="nonzero"/><path d="M148.325 363.606c-2.429 10.696-12.102-5.47-14.303-9.349l-.449-.802 1.053-4.918 5.543-2.26c.876.457 1.707.997 2.48 1.613 3.033 2.37 7.553 7.442 5.676 15.716zM223.365 346.116s0 .081-.059.235l-.081.265c-.942 3.335-6.588 22.128-12.028 16.931-5.963-5.72-3.062-18.867-3.062-18.867h.036l12.514-1.281 2.481 2.547.199.17z" fill="#ebc8b2" fill-rule="nonzero"/><path d="M216.107 438.565l.316 35.856c-4.91 8.149-4.505 15.4-4.505 15.4l-16.194.64c-3.953-2.657-1.127-10.07-1.127-10.07v-18.447s-2.502-18.05-1.295-23.048c1.207-4.998-5.072-14.266-5.072-14.266l-.891-10.07c-3.062-4.034-4.512-26.28-4.512-26.28l-3.298-11.181c.088.486 1.796 9.856 0 11.586-1.796 1.73-2.495 9.349-2.495 9.349s1.774 21.119 0 25.389c-1.775 4.269.478 6.691.478 6.691l.324 21.922s-1.531 5.889.162 14.177c1.693 8.289 0 21.12 0 21.12h-17.424l.081-8.944-2.805-7.612s-1.936-31.27-3.467-38.042a16.98 16.98 0 011.612-11.844c1.955-3.621-3.224-5.153-3.062-8.79.162-3.636-2.444-10.519-2.444-10.519l-3.747-25.47a49.336 49.336 0 00-1.855-14.509c-2.208-7.25-5.396-16.761-5.396-16.761l3.637.324 18.403 1.634s44.645-3.003 46.648-.508c.422.814.706 1.692.839 2.599 2.002 9.01 4.652 37.218 4.652 37.218s5.403 22.003 3.085 24.181c-2.319 2.179-2.032 9.261-2.032 9.261 3.393 6.676 1.384 19.014 1.384 19.014z" fill="#2f2e41" fill-rule="nonzero"/><path d="M178.366 500.958c-.125 1.995-2.356 2.113-2.356 2.113-6.529 1.03-7.92 3.57-7.92 3.57a21.022 21.022 0 01-15.716 5.322c-8.032-.736-7.244-2.208-6.839-4.858.083-.487.127-.979.132-1.472 0-3.629 2.776-4.653 7.133-7.362 4.358-2.708 4.226-5.02 6.044-7.007 1.818-1.988 1.995-5.889 1.995-5.889 2.054-3.571 7.251.537 7.251.537.243 1.266 7.979 1.089 7.979 1.089s1.031 4.108 1.553 4.351c.354.162.611 3.386.737 6.154.036 1.406.051 2.716.007 3.452z" fill="#303d5c" fill-rule="nonzero"/><path d="M178.366 500.958c-.125 1.995-2.356 2.113-2.356 2.113-6.529 1.03-7.92 3.57-7.92 3.57a21.022 21.022 0 01-15.716 5.322c-8.032-.736-7.244-2.208-6.839-4.858 3.585.891 10.453 2.135 14.45-.044 5.565-3.018 9.57-5.153 9.57-5.153l8.796-4.417c.044 1.421.059 2.731.015 3.467z" fill-opacity=".1" fill-rule="nonzero"/><path d="M227.561 511.676a3.525 3.525 0 01-2.01 1.664h-.154c-2.658.537-12.941.537-12.941.537s-10.394-8.031-13.538-8.215a6.63 6.63 0 01-4.836-2.944c-1.09-1.655.059-1.87.265-4.042.243-2.576.67-5.565 1.428-6.352 1.391-1.473 1.693-3.445 4.836-2.209 0 0 4.469-7.869 9.725-1.789l5.447 8.26s1.023 3.445 7.92 7.133c2.761 1.472 4.012 3.217 4.336 4.807a4.27 4.27 0 01-.478 3.15z" fill="#303d5c" fill-rule="nonzero"/><path d="M227.561 511.676c-.619.523-1.296 1.082-2.01 1.664h-.154c-2.658.537-12.941.537-12.941.537s-10.394-8.031-13.538-8.215a6.63 6.63 0 01-4.836-2.944c-1.09-1.655.059-1.87.265-4.042 3.195.957 8.046 2.65 9.349 4.469 1.987 2.775 8.046 6.625 8.046 6.625s11.284-1.082 16.297-1.237a4.27 4.27 0 01-.478 3.143z" fill-opacity=".1" fill-rule="nonzero"/><path d="M183.614 230.42l-14.877 15.716s-18.012-1.325-14.869-6.625c1.605-2.709 1.855-8.385 1.715-13.317-.133-4.755-.626-8.833-.626-8.833s25.271-12.573 23.335-.847a19.374 19.374 0 00-.073 6.699c1.119 5.918 5.395 7.207 5.395 7.207z" fill="#ebc8b2" fill-rule="nonzero"/><path d="M178.307 216.514a19.35 19.35 0 00-.074 6.699c-3.371 3.408-8.053 2.657-13.25 2.657-3.43 0-7.111.052-9.871-1.575-.133-4.755-.162-6.934-.162-6.934s25.293-12.573 23.357-.847z" fill-opacity=".1" fill-rule="nonzero"/><path d="M183.614 209.146c-.004 10.214-8.409 18.616-18.623 18.616-10.21-.004-18.609-8.406-18.609-18.616 0-10.213 8.403-18.617 18.616-18.617s18.616 8.404 18.616 18.617z" fill="#ebc8b2" fill-rule="nonzero"/><path d="M208.952 348.876c-4.631 11.042-34.458 11.263-34.458 11.263V348.11l-1.804-.117c.781 3.445-1.096 11.844-1.096 11.844-23.556 3.327-29.313-10.092-29.313-10.092l.817-4.594 18.403 1.634s44.646-3.003 46.648-.508a8.24 8.24 0 01.803 2.599z" fill-opacity=".1" fill-rule="nonzero"/><path d="M174.494 358.688V346.66l-1.804-.118c.781 3.446-1.096 11.845-1.096 11.845-17.741 2.502-25.382-4.483-28.076-8.098a11.23 11.23 0 01-1.237-2.002l7.192-40.486 1.693-59.626 2.599-10.453.596-5.02v-.059h.066l1.833.787 10.976 4.748 12.47-9.415.176-.139.626-.464 1.031.824 2.561 2.054 8.223 53.082s14.258 40.869 16.93 57.365c.104.655.192 1.266.258 1.848 1.737 15.076-35.017 15.355-35.017 15.355z" fill="#e1e7ef" fill-rule="nonzero"/><circle cx="168.568" cy="239.371" r="1.06" fill="#67647e"/><circle cx="169.054" cy="249.036" r="1.06" fill="#67647e"/><circle cx="170.114" cy="264.693" r="1.06" fill="#67647e"/><circle cx="171.866" cy="281.558" r="1.06" fill="#67647e"/><circle cx="172.926" cy="297.399" r="1.06" fill="#67647e"/><circle cx="173.986" cy="314.264" r="1.06" fill="#67647e"/><circle cx="173.566" cy="330.944" r="1.06" fill="#67647e"/><path d="M155.068 313.682s-1.185 15.51-3.357 20.023c-2.172 4.512-3.143 17.166-3.143 17.166l-5.05-.574a11.275 11.275 0 01-1.237-2.003l7.192-40.486 1.693-59.626 2.599-10.453.596-5.02h.074a2.051 2.051 0 011.796 0l.243.125c-.074.206-.148.42-.206.633-1.973 6.169-2.709 17.535-2.709 17.535s2.826 20.795 3.143 30.468c.316 9.672-1.634 32.212-1.634 32.212z" fill-opacity=".1" fill-rule="nonzero"/><path d="M142.649 347.89a2.983 2.983 0 01-.198.375c-1.958 3.313-6.92 5.418-8.429 5.992l-.449-.802 1.053-4.918 5.543-2.26c.876.457 1.707.997 2.48 1.613z" fill-opacity=".1" fill-rule="nonzero"/><path d="M129.223 268.742l-4.594 2.746-4.188 18.616s-5.242 15.797-1.215 27.075c4.027 11.277 6.367 17.733 6.367 17.733s1.613 12.816 4.034 13.861c2.422 1.045 3.468 1.612 3.468 1.612l.478 3.062s6.559-2.208 8.885-6.146c2.326-3.939-1.708-13.677-1.708-13.677s-3.467-8.304-2.584-12.168c.884-3.865-1.766-13.987-1.766-14.266 0-.28-.243-5.646 1.685-9.791 1.929-4.144.648-5.926.648-5.926l-1.207-11.851-8.303-10.88z" fill="#303d5c" fill-rule="nonzero"/><path d="M209.334 345.394s-12.168 4.594-16.04.56c-3.872-4.034-3.467-22.886-3.467-22.886s-3.68-34.819-6.043-40.538c-2.363-5.72-1.127-46.994-1.127-46.994s-1.575-5.337-2.944-6.728a1.3 1.3 0 00-.287-.236l.464.096 1.656.36 2.562 2.054 8.222 53.082s14.259 40.869 16.931 57.366l.073 3.864z" fill-opacity=".1" fill-rule="nonzero"/><path d="M223.365 346.601h-.14c-1.524.199-15.054 1.833-15.105-.986a8.765 8.765 0 01.051-.972l12.514-1.281 2.481 2.547c.044.162.081.31.118.42l.081.272z" fill-opacity=".1" fill-rule="nonzero"/><path d="M210.387 250.096l8.892 4.638s7.362 19.139 8.591 27.391c0 0 5.484 22.017 1.693 31.079-3.791 9.061-3.46 27.03-3.46 27.03s-2.208 3.305-3.069 2.414c-.862-.89.324 3.468.324 3.468s-15.187 2.017-15.253-.965c-.066-2.981 3.482-17.247 3.482-17.247s.964-33.935-.405-39.25c-1.369-5.315-.795-38.558-.795-38.558z" fill="#303d5c" fill-rule="nonzero"/><path d="M183.865 286.232s-4.991 12.249-6.625 13.059c-1.635.81.316 4.027.316 4.027s9.135-12.735 6.309-17.086zM180.883 243.272c.059-.228-5.962 5.889-7.574 6.824-1.612.935 5.889-.051 7.574-6.824zM164.122 285.275s-9.187 5.941-7.98 8.289c1.208 2.348 7.98-8.289 7.98-8.289zM180.802 371.99s7.825 5.028 19.993 6.287l-19.993-6.287zM162.024 384.077s7.258 9.106 10.563 9.349c3.306.243-10.563-9.349-10.563-9.349zM172.182 419.779c-.323.162-4.114 8.222-7.979 8.465-3.865.243 7.979-8.465 7.979-8.465zM205.786 437.431s7.192-1.612 8.79 3.548c0 0-.486-1.612-8.79-3.548zM200.957 466.927s8.701-1.774 10.556.648c1.855 2.422-10.556-.648-10.556-.648zM176.319 471.042c0 .081-8.833 1.774-8.516 2.901.316 1.126 9.459.964 9.775-.81a1.683 1.683 0 00-1.259-2.091zM198.05 478.698s14.568-1.774 13.647 1.288c-.92 3.062-13.647-1.288-13.647-1.288zM121.78 299.262c.081.242 9.57 1.531 10.88 4.593 0 0-9.348-4.351-10.799-4.351M135.185 324.194s-7.898 2.495-7.361 6.286c.537 3.791-.773-1.774 7.361-6.286zM131.505 343.377s2.878-3.953 5.616-3.224c2.738.729-5.616 3.224-5.616 3.224zM176.621 194.593a4.58 4.58 0 01-.927.692c-2.29 1.325-2.908 3.371-4.005 5.727-1.001 2.156-2.12 4.416-4.151 5.668-2.621 1.582-6.081 1.001-8.834 2.385a6.873 6.873 0 00-3.644 6.735c.174 1.048.432 2.079.773 3.085a21.71 21.71 0 01.832 6.706.936.936 0 010 .198 18.642 18.642 0 01-10.279-16.645c0-10.212 8.404-18.616 18.617-18.616a18.62 18.62 0 0111.611 4.065h.007z" fill-opacity=".1" fill-rule="nonzero"/><path d="M176.135 188.991c-2.046-4.299-6.492-7.015-11.041-8.34-3.49-1.016-7.281-1.347-10.748-.236a39.448 39.448 0 00-5.616 2.635c-3.453 1.745-7.251 3.129-9.85 5.992a2.948 2.948 0 00-.979 2.4 6.28 6.28 0 00.972 1.745c.736 1.31.545 2.944.052 4.416-.494 1.473-1.252 2.746-1.605 4.211-.353 1.465-.214 3.173.868 4.218.52.415 1.061.803 1.62 1.163a8.871 8.871 0 011.553 1.752l3.07 4.203a43.245 43.245 0 013.85 5.889 28.654 28.654 0 002.385 4.513c1.023 1.361 2.62 2.458 4.321 2.304a.827.827 0 00.677-.324.926.926 0 00.088-.427 22.104 22.104 0 00-.832-6.699 18.793 18.793 0 01-.78-3.092 6.874 6.874 0 013.644-6.735c2.738-1.377 6.198-.795 8.833-2.378 2.032-1.229 3.151-3.511 4.152-5.668 1.097-2.363 1.708-4.417 4.005-5.734 2.296-1.318 2.495-3.548 1.361-5.808z" fill="#2f2e41" fill-rule="nonzero"/><path d="M167.795 493.303s2.834 3.629 2.106 5.682c-.729 2.054-2.106-5.682-2.106-5.682zM206.324 502.372s.633-4.866 3.172-4.91c2.54-.044 2.658-.258 4.594.478 1.936.736 3.754 1.907 3.18 2.083-.574.177-3.342-2.782-6.162-1.273a20.439 20.439 0 00-4.784 3.622zM159.322 244.295l7.951-5.594s-11.668-6.89-13.059-5.926c-1.391.965-2.341 9.68-2.341 9.68l7.449 1.84z" fill-opacity=".1" fill-rule="nonzero"/><path d="M159.264 243.927l7.979-5.712s-11.667-6.89-13.059-5.889c-1.391 1.001-2.34 10.159-2.34 10.159l7.42 1.442z" fill="#e1e7ef" fill-rule="nonzero"/><path d="M159.264 243.927l7.979-5.712s-11.667-6.89-13.059-5.889c-1.391 1.001-2.34 10.159-2.34 10.159l7.42 1.442z" fill-opacity=".03" fill-rule="nonzero"/><path d="M155.509 232.363l-.243-.125a2.073 2.073 0 00-2.208.235l-23.916 19.405s-5.197 7.191-4.476 19.61l14.045 19.985s1.612-6.772 3.548-5.484c0 0 2.739 34.657 0 39.655-2.738 4.998-3.931 23.674-3.931 23.674l9.268 1.045s.972-12.654 3.143-17.166c2.172-4.513 3.364-20.015 3.364-20.015s1.958-22.54 1.635-32.213c-.324-9.673-3.144-30.461-3.144-30.461s.788-12.168 2.915-18.145z" fill="#303d5c" fill-rule="nonzero"/><path d="M179.338 240.755l-9.945-3.681s12.661-13.861 14.236-6.169l-4.291 9.85z" fill-opacity=".1" fill-rule="nonzero"/><path d="M179.338 240.276l-9.945-3.68s12.661-13.891 14.221-6.176l-4.276 9.856z" fill="#e1e7ef" fill-rule="nonzero"/><path d="M179.338 240.276l-9.945-3.68s12.661-13.891 14.221-6.176l-4.276 9.856z" fill-opacity=".03" fill-rule="nonzero"/><path d="M179.014 228.484a.543.543 0 01.412.088l-.412-.088z" fill-opacity=".1" fill-rule="nonzero"/><path d="M179.978 227.519l26.375 5.683s7.251 1.612 12.514 19.824c5.263 18.211-7.17 40.531-7.17 40.531l-2.745-2.327 1.376 53.192s-12.175 4.594-16.04.567c-3.864-4.026-3.467-22.893-3.467-22.893s-3.681-34.818-6.044-40.538c-2.362-5.72-1.163-46.987-1.163-46.987s-2.164-7.376-3.636-7.052z" fill="#303d5c" fill-rule="nonzero"/><path d="M204.101 261.41c-.376.346-.81 16.438.802 28.709a156.379 156.379 0 004.571 22.084l-2.392-49.085s-1.855-2.753-2.981-1.708zM200.876 247.549c.641.405 3.46 7.089 2.172 9.835-1.288 2.745-2.172-9.835-2.172-9.835zM175.981 188.991a14.498 14.498 0 00-5.801-6.073 13.816 13.816 0 014.351 5.109c1.126 2.259.802 4.527-1.414 5.808-2.215 1.28-2.907 3.371-4.004 5.727-1.001 2.156-2.113 4.416-4.152 5.668-2.62 1.582-6.08 1.001-8.833 2.377a6.887 6.887 0 00-3.644 6.743 19.71 19.71 0 00.773 3.084 21.75 21.75 0 01.832 6.707.84.84 0 01-.089.426.812.812 0 01-.677.324 4.001 4.001 0 01-1.987-.368 4.619 4.619 0 003.437 1.333.665.665 0 00.736-.736 21.911 21.911 0 00-.824-6.699 18.818 18.818 0 01-.78-3.092 6.871 6.871 0 013.68-6.735c2.731-1.377 6.191-.795 8.834-2.378 2.039-1.229 3.15-3.511 4.151-5.668 1.105-2.363 1.716-4.417 4.005-5.734 2.289-1.318 2.532-3.563 1.406-5.823z" fill-opacity=".1" fill-rule="nonzero"/><defs><linearGradient id="_Linear1" x1="0" y1="0" x2="1" y2="0" gradientUnits="userSpaceOnUse" gradientTransform="rotate(-90 344.377 170.222) scale(336.679)"><stop offset="0" stop-color="gray" stop-opacity=".25"/><stop offset=".54" stop-color="gray" stop-opacity=".12"/><stop offset="1" stop-color="gray" stop-opacity=".1"/></linearGradient></defs></svg>