<svg viewBox="0 0 800 600" xmlns="http://www.w3.org/2000/svg" fill-rule="evenodd" clip-rule="evenodd" stroke-linejoin="round" stroke-miterlimit="2"><path d="M556.479 409.75H17.582C8.074 409.739.254 401.919.243 392.411V68.6c.008-6.966 5.737-12.695 12.702-12.703h547.95c7.086.008 12.914 5.836 12.922 12.922v323.592c-.011 9.508-7.831 17.328-17.338 17.339z" fill="#f2f2f2" fill-rule="nonzero"/><path d="M34.395 392.411h505.271c9.223 0 16.813-7.589 16.813-16.813V100.761c0-9.224-7.59-16.813-16.813-16.813H34.395c-9.224 0-16.813 7.589-16.813 16.813v274.837c0 9.224 7.589 16.813 16.813 16.813z" fill="#fff" fill-rule="nonzero"/><path d="M573.576 67.608H0v-8.827c.014-9.54 7.862-17.383 17.402-17.391h538.772c9.539.008 17.388 7.851 17.402 17.391v8.827z" fill="#6c63ff" fill-rule="nonzero"/><circle cx="31.625" cy="54.525" r="4.501" fill="#fff"/><circle cx="48.71" cy="54.525" r="4.501" fill="#fff"/><circle cx="65.794" cy="54.525" r="4.501" fill="#fff"/><path d="M302.796 332.808h-45.185c-5.474-.006-9.976-4.509-9.983-9.983v-45.184c.007-5.474 4.509-9.977 9.983-9.983h45.185c5.474.006 9.977 4.509 9.983 9.983v45.184c-.006 5.474-4.509 9.977-9.983 9.983zm-45.185-63.049c-4.321.005-7.876 3.56-7.881 7.882v45.184c.005 4.322 3.56 7.877 7.881 7.882h45.185c4.322-.005 7.876-3.56 7.881-7.882v-45.184c-.005-4.322-3.559-7.877-7.881-7.882h-45.185z" fill="#ccc" fill-rule="nonzero"/><path d="M293.864 320.198h-27.321a3.169 3.169 0 01-3.152-3.152V283.42a3.169 3.169 0 013.152-3.152h19.797c.718 0 1.415.245 1.975.695l7.524 6.046a3.138 3.138 0 011.178 2.457v27.58a3.17 3.17 0 01-3.153 3.152zm-27.321-37.829a1.058 1.058 0 00-1.051 1.051v33.626c.001.576.475 1.05 1.051 1.051h27.321a1.058 1.058 0 001.051-1.051v-27.58a1.045 1.045 0 00-.393-.819l-7.525-6.046a1.047 1.047 0 00-.657-.232h-19.797z" fill="#ccc" fill-rule="nonzero"/><path d="M288.61 294.979h-16.813a1.056 1.056 0 01-1.051-1.051c0-.576.475-1.051 1.051-1.051h16.813c.577 0 1.051.475 1.051 1.051 0 .577-.474 1.051-1.051 1.051zm0 6.305h-16.813a1.057 1.057 0 01-1.051-1.051c0-.576.475-1.051 1.051-1.051h16.813c.577 0 1.051.475 1.051 1.051s-.474 1.051-1.051 1.051zm0 6.305h-16.813a1.057 1.057 0 01-1.051-1.051c0-.577.475-1.051 1.051-1.051h16.813c.577 0 1.051.474 1.051 1.051 0 .576-.474 1.051-1.051 1.051zm121.369 25.219h-45.185c-5.474-.006-9.976-4.509-9.983-9.983v-45.184c.007-5.474 4.509-9.977 9.983-9.983h45.185c5.474.006 9.976 4.509 9.983 9.983v45.184c-.007 5.474-4.509 9.977-9.983 9.983zm-45.185-63.049c-4.322.005-7.876 3.56-7.881 7.882v45.184c.005 4.322 3.559 7.877 7.881 7.882h45.185c4.322-.005 7.876-3.56 7.881-7.882v-45.184c-.005-4.322-3.559-7.877-7.881-7.882h-45.185z" fill="#ccc" fill-rule="nonzero"/><path d="M402.098 311.792h-29.423a3.17 3.17 0 01-3.152-3.153v-16.813a3.17 3.17 0 013.152-3.152h29.423a3.17 3.17 0 013.152 3.152v16.813a3.17 3.17 0 01-3.152 3.153zm-29.423-21.016c-.576 0-1.05.474-1.051 1.05v16.813a1.057 1.057 0 001.051 1.051h29.423c.576 0 1.05-.474 1.051-1.051v-16.813a1.057 1.057 0 00-1.051-1.05h-29.423z" fill="#ccc" fill-rule="nonzero"/><path d="M387.386 303.005a3.158 3.158 0 01-1.67-.475l-15.7-9.812a1.052 1.052 0 011.115-1.783l15.699 9.812a1.06 1.06 0 001.114 0l15.698-9.812a1.05 1.05 0 011.607.893c0 .361-.186.698-.492.89l-15.699 9.812a3.165 3.165 0 01-1.672.475zm-191.773 29.803h-45.185c-5.474-.006-9.976-4.509-9.982-9.983v-45.184c.006-5.474 4.508-9.977 9.982-9.983h45.185c5.474.006 9.977 4.509 9.983 9.983v45.184c-.006 5.474-4.509 9.977-9.983 9.983zm-45.185-63.049c-4.321.005-7.876 3.56-7.881 7.882v45.184c.005 4.322 3.56 7.877 7.881 7.882h45.185c4.322-.005 7.876-3.56 7.881-7.882v-45.184c-.005-4.322-3.559-7.877-7.881-7.882h-45.185z" fill="#ccc" fill-rule="nonzero"/><path d="M187.732 311.792h-29.423a3.171 3.171 0 01-3.152-3.153v-16.813a3.171 3.171 0 013.152-3.152h29.423a3.171 3.171 0 013.153 3.152v16.813a3.172 3.172 0 01-3.153 3.153zm-29.423-21.016c-.576 0-1.05.474-1.05 1.05v16.813c0 .577.474 1.051 1.05 1.051h29.423c.576 0 1.05-.474 1.051-1.051v-16.813a1.057 1.057 0 00-1.051-1.05h-29.423z" fill="#ccc" fill-rule="nonzero"/><path d="M183.069 311.792h-21.148a2.112 2.112 0 01-2.101-2.101c0-.369.097-.732.282-1.052l6.37-11.033a2.105 2.105 0 011.82-1.051c.75 0 1.445.402 1.82 1.051l4.114 7.126 2.383-4.129a2.105 2.105 0 013.641 0l4.639 8.036c.184.32.282.682.282 1.051a2.112 2.112 0 01-2.102 2.102zm0-2.102l-4.64-8.036-3.293 5.705a1.05 1.05 0 01-1.82 0l-5.024-8.702-6.37 11.033h21.147z" fill="#ccc" fill-rule="nonzero"/><circle cx="184.58" cy="294.979" r="2.102" fill="#ccc"/><path d="M687.094 570.892l-12.883-.001-6.129-49.691 19.014.001-.002 49.691z" fill="#ebc8b2" fill-rule="nonzero"/><path d="M690.379 583.379l-41.539-.001v-.526c0-8.869 7.298-16.168 16.168-16.168l25.372.002-.001 16.693z" fill="#2f2e41" fill-rule="nonzero"/><path d="M739.634 570.892l-12.883-.001-6.128-49.691 19.013.001-.002 49.691z" fill="#ebc8b2" fill-rule="nonzero"/><path d="M742.92 583.379l-41.539-.001v-.526c0-8.869 7.298-16.168 16.167-16.168l25.372.002v16.693zm-7.148-34.029l-11.931-3.629a4.73 4.73 0 01-3.327-4.028L709.39 436.269a.505.505 0 00-.502-.47.497.497 0 00-.537.43l-18.632 102.138a4.743 4.743 0 01-4.652 3.88c-.32 0-.64-.033-.954-.097l-15.248-3.141a4.762 4.762 0 01-3.764-4.952l11.333-167.407 76.855-8.293-11.421 186.757a4.753 4.753 0 01-4.712 4.443 4.74 4.74 0 01-1.384-.207z" fill="#2f2e41" fill-rule="nonzero"/><circle cx="735.699" cy="195.055" r="25.809" fill="#ebc8b2"/><path d="M676.316 367.633l16.664-104.925c3.055-19.236 19.811-33.54 39.288-33.54 3.776 0 7.532.537 11.157 1.596 19.542 5.652 31.728 25.47 27.952 45.46l-17.434 93.703-77.627-2.294z" fill="#6c63ff" fill-rule="nonzero"/><path d="M742.824 386.406a10.572 10.572 0 004.745-8.817 10.57 10.57 0 00-2.909-7.281l17.23-33.365-19.404 2.071L729.1 370.38a10.626 10.626 0 00-2.811 7.199c0 5.828 4.796 10.624 10.624 10.624 2.105 0 4.163-.625 5.911-1.796v-.001z" fill="#ebc8b2" fill-rule="nonzero"/><path d="M746.514 364.423a4.744 4.744 0 01-2.55-1.209l-6.592-6.092a4.753 4.753 0 01-1.147-5.311l13.174-31.228-1.869-61.703c1.019-7.519 7.508-13.189 15.096-13.189 8.356 0 15.233 6.877 15.233 15.234 0 .693-.048 1.385-.142 2.072l3.195 38.788a48.737 48.737 0 01-9.391 32.992l-20.546 27.776a4.733 4.733 0 01-4.461 1.87z" fill="#6c63ff" fill-rule="nonzero"/><path d="M587.073 180.993c.924 4.989 5.317 8.643 10.39 8.643 1.27 0 2.53-.229 3.719-.676l24.006 28.875 5.659-18.675-23.665-24.557a10.64 10.64 0 00-9.675-6.236c-5.828 0-10.624 4.796-10.624 10.624 0 .672.064 1.342.19 2.002z" fill="#ebc8b2" fill-rule="nonzero"/><path d="M605.878 192.962a4.742 4.742 0 012.108-1.877l8.179-3.695a4.754 4.754 0 015.338 1.014l23.621 24.308 57.549 22.336a15.25 15.25 0 017.467 13.105c0 8.357-6.876 15.234-15.233 15.234a15.24 15.24 0 01-7.796-2.146l-36.964-12.181a48.742 48.742 0 01-26.719-21.512l-17.567-29.749a4.734 4.734 0 01.017-4.837z" fill="#6c63ff" fill-rule="nonzero"/><path d="M756.633 284.547l-1.05 33.626-19.359 33.638 16.164-37.486 4.245-29.778z" fill-opacity=".1" fill-rule="nonzero"/><path d="M732.742 199.905c-3.337.434-6.514-1.691-7.387-4.941a10.274 10.274 0 00-7.304-7.643c-4.735-1.082-10.521 1.147-13.99-2.441a6.977 6.977 0 01-1.656-6.139c.639-3.485 3.133-6.119 5.846-8.225a35.801 35.801 0 0119.825-7.409 71.158 71.158 0 0111.16.555c3.874.245 7.706.945 11.416 2.087a26.9 26.9 0 0116.815 19.629 31.046 31.046 0 01-6.365 25.356 33.323 33.323 0 01-12.778 9.73 4.986 4.986 0 01-3.79.192c-3.108-1.236-2.6-5.085-1.183-7.653 1.517-2.747 3.85-5.408 2.63-8.751a6.625 6.625 0 00-3.286-3.538c-3.089-1.575-6.544-1.202-9.866-.819l-.087.01z" fill="#2f2e41" fill-rule="nonzero"/><path d="M578.448 214.48H259.001c-9.507-.011-17.327-7.831-17.338-17.338v-68.303c.011-9.508 7.831-17.328 17.338-17.339h319.447c9.508.011 17.328 7.831 17.339 17.339v68.303c-.011 9.507-7.831 17.327-17.339 17.338z" fill="#fff" fill-rule="nonzero"/><path d="M578.448 215.005H259.001c-9.795-.011-17.853-8.068-17.864-17.863v-68.303c.011-9.796 8.069-17.853 17.864-17.864h319.447c9.796.011 17.853 8.068 17.864 17.864v68.303c-.011 9.795-8.068 17.852-17.864 17.863zM259.001 113.077c-8.643.009-15.752 7.119-15.762 15.762v68.303c.01 8.643 7.119 15.752 15.762 15.762h319.447c8.643-.01 15.753-7.119 15.762-15.762v-68.303c-.009-8.643-7.119-15.753-15.762-15.762H259.001z" fill="#3f3d56" fill-rule="nonzero"/><path d="M539.568 197.667H297.881c-9.507-.011-17.327-7.831-17.338-17.338v-35.728c.011-9.507 7.831-17.328 17.338-17.338h241.687c9.508.01 17.328 7.831 17.339 17.338v35.728c-.011 9.507-7.831 17.327-17.339 17.338z" fill="#f2f2f2" fill-rule="nonzero"/><circle cx="349.891" cy="157.675" r="20.735" fill="#ff6584"/><path d="M524.549 195.575l-29.268-24.547-28.762-24.123a4.217 4.217 0 00-5.415.011l-28.67 24.233-7.002 5.92-10.559-8.856-32.089-26.912a4.216 4.216 0 00-5.414.01l-31.985 27.036-32.488 27.461c-.236.2-.372.494-.372.803 0 .576.474 1.051 1.051 1.051h.002l66.607-.129 21.084-.04-.206.174 62.846-.121 59.967-.116a1.05 1.05 0 00.673-1.855z" fill="#3f3d56" fill-rule="nonzero"/><path d="M85.803 239.174H40.618c-5.474-.006-9.976-4.509-9.982-9.983v-45.184c.006-5.474 4.508-9.977 9.982-9.983h45.185c5.474.006 9.977 4.509 9.983 9.983v45.184c-.006 5.474-4.509 9.977-9.983 9.983z" fill="#fff" fill-rule="nonzero"/><path d="M85.803 239.174H40.618c-5.474-.006-9.976-4.509-9.982-9.983v-45.184c.006-5.474 4.508-9.977 9.982-9.983h45.185c5.474.006 9.977 4.509 9.983 9.983v45.184c-.006 5.474-4.509 9.977-9.983 9.983zm-45.185-63.049c-4.321.005-7.876 3.56-7.881 7.882v45.184c.005 4.322 3.56 7.877 7.881 7.882h45.185c4.322-.005 7.877-3.56 7.881-7.882v-45.184c-.004-4.322-3.559-7.877-7.881-7.882H40.618z" fill="#3f3d56" fill-rule="nonzero"/><path d="M77.922 220.785H48.499a3.171 3.171 0 01-3.152-3.152v-22.068a3.171 3.171 0 013.152-3.152h8.283a3.135 3.135 0 012.685 1.5l2.31 3.754h16.145a3.172 3.172 0 013.153 3.153v16.813a3.171 3.171 0 01-3.153 3.152z" fill="#6c63ff" fill-rule="nonzero"/></svg>