<svg viewBox="0 0 800 600" xmlns="http://www.w3.org/2000/svg" fill-rule="evenodd" clip-rule="evenodd" stroke-linejoin="round" stroke-miterlimit="2"><path d="M760.016 78.687l-.188 426.368c-29.948 0-669.711.155-669.711.155a151.47 151.47 0 01-51.177-34.381V78.687h721.076z" fill="#fff" fill-rule="nonzero"/><path d="M760.016 62.01v18.388H38.931V62.01v-.008c0-3.46 2.847-6.307 6.307-6.307H753.71c3.459 0 6.306 2.847 6.306 6.306v.009z" fill="#ededf4" fill-rule="nonzero"/><circle cx="50.363" cy="67.863" r="2.952" fill="#fa5959" fill-opacity=".8"/><circle cx="58.475" cy="67.863" r="2.952" fill="#fed253" fill-opacity=".8"/><circle cx="66.578" cy="67.863" r="2.952" fill="#8ccf4d" fill-opacity=".8"/><path d="M133.465 80.398v425.667s-38.505-.154-94.525-1.01V80.398h94.525zM761.069 80.398v426.369c-.36.265-34.432-.394-35.938.154h-58.613V80.398h94.551z" fill="#ededf4" fill-rule="nonzero"/><path fill="#fff" d="M51.972 101.182h68.453v8.557H51.972zM51.972 120.863h68.453v8.557H51.972zM51.972 140.543h68.453v8.557H51.972zM51.972 160.223h68.453v8.557H51.972zM51.972 179.903h68.453v8.557H51.972zM52.177 238.088h68.453v8.557H52.177zM52.177 257.769h68.453v8.557H52.177zM52.177 277.449h68.453v8.557H52.177zM52.177 297.129h68.453v8.557H52.177zM52.177 316.81h68.453v8.557H52.177zM52.374 374.995h68.453v8.557H52.374zM52.374 394.675h68.453v8.557H52.374zM52.374 414.355h68.453v8.557H52.374zM52.374 434.035h68.453v8.557H52.374zM52.374 453.716h68.453v8.557H52.374zM671.677 84.069h8.557v8.557h-8.557zM681.945 84.069h8.557v8.557h-8.557zM692.213 84.069h8.557v8.557h-8.557zM702.481 84.069h8.557v8.557h-8.557zM712.749 84.069h8.557v8.557h-8.557zM671.677 120.007h8.557v8.557h-8.557zM681.945 120.007h8.557v8.557h-8.557zM692.213 120.007h8.557v8.557h-8.557zM702.481 120.007h8.557v8.557h-8.557zM712.749 120.007h8.557v8.557h-8.557zM671.677 155.945h8.557v8.557h-8.557zM681.945 155.945h8.557v8.557h-8.557zM692.213 155.945h8.557v8.557h-8.557zM702.481 155.945h8.557v8.557h-8.557zM712.749 155.945h8.557v8.557h-8.557zM671.677 191.883h8.557v8.557h-8.557zM681.945 191.883h8.557v8.557h-8.557zM692.213 191.883h8.557v8.557h-8.557zM702.481 191.883h8.557v8.557h-8.557zM712.749 191.883h8.557v8.557h-8.557zM671.677 227.821h8.557v8.557h-8.557zM681.945 227.821h8.557v8.557h-8.557zM692.213 227.821h8.557v8.557h-8.557zM702.481 227.821h8.557v8.557h-8.557zM712.749 227.821h8.557v8.557h-8.557zM671.677 263.758h8.557v8.557h-8.557zM681.945 263.758h8.557v8.557h-8.557zM692.213 263.758h8.557v8.557h-8.557zM702.481 263.758h8.557v8.557h-8.557zM712.749 263.758h8.557v8.557h-8.557zM671.677 299.696h8.557v8.557h-8.557zM681.945 299.696h8.557v8.557h-8.557zM692.213 299.696h8.557v8.557h-8.557zM702.481 299.696h8.557v8.557h-8.557zM712.749 299.696h8.557v8.557h-8.557zM671.677 335.634h8.557v8.557h-8.557zM681.945 335.634h8.557v8.557h-8.557zM692.213 335.634h8.557v8.557h-8.557zM702.481 335.634h8.557v8.557h-8.557zM712.749 335.634h8.557v8.557h-8.557zM671.677 371.572h8.557v8.557h-8.557zM681.945 371.572h8.557v8.557h-8.557zM692.213 371.572h8.557v8.557h-8.557zM702.481 371.572h8.557v8.557h-8.557zM712.749 371.572h8.557v8.557h-8.557zM671.677 407.51h8.557v8.557h-8.557zM681.945 407.51h8.557v8.557h-8.557zM692.213 407.51h8.557v8.557h-8.557zM702.481 407.51h8.557v8.557h-8.557zM712.749 407.51h8.557v8.557h-8.557zM671.677 443.448h8.557v8.557h-8.557zM681.945 443.448h8.557v8.557h-8.557zM692.213 443.448h8.557v8.557h-8.557zM702.481 443.448h8.557v8.557h-8.557zM712.749 443.448h8.557v8.557h-8.557zM671.677 479.386h8.557v8.557h-8.557zM681.945 479.386h8.557v8.557h-8.557zM692.213 479.386h8.557v8.557h-8.557zM702.481 479.386h8.557v8.557h-8.557zM712.749 479.386h8.557v8.557h-8.557z"/><path d="M425.666 175.454l-27.014 4.039-55.746 8.325-122.814 18.354-.436.06L179.44 471.06l-.163 1.052 457.78-199.9 1.215-.53-212.606-96.228zm185.02 85.027l-14.102 5.34-20.792-10.106 13.99-4.697 20.904 9.463zm-223.645-74.032l.462-.068 5.134 3.174-3.5.565-6.229 1.001-4.766-3.294 7.307-1.113 1.592-.265zm-4.372 5.921l4.526 3.132 2.285 1.583-2.285.454-1.711.342-4.527.898-6.554-5.074 7.752-1.249.514-.086zm7.136-1.155l4.406-.719 6.923 4.279-10.054 2.002-2.216-1.532-4.527-3.131 5.468-.899zm19.569-3.166l8.762-1.412 6.529 3.423-9.413 1.874-3.508-2.002-3.115-1.78.745-.103zm8.283 6.632l4.03 2.301-.924.189-10.157 2.019-6.306-3.876 10.73-2.131 2.627 1.498zm-28.999 10.105l9.25-1.848 1.369.958.317.214 1.976 1.369-9.412 2.028-2.644-2.088-.197-.162-.659-.471zm10.859-2.165l10.858-2.165 2.567 1.575.479.291.736.453-10.953 2.37-1.814-1.257-.325-.231-1.548-1.036zM364.7 268.242l-21.289 5.613-6.17-10.909 20.117-4.869 7.342 10.165zm-8.044-11.218l-20.022 4.86-5.134-9.095 18.516-4.381.394-.094 4.903 6.845v.06l1.343 1.805zm64.629-37.931l1.968 1.369-4.878 1.052-5.758 1.232-.616.137-1.566-1.215-1.814-1.412-7.701-5.989 10.054-2.293 7.205 4.988 3.106 2.131zm-35.391-1.369l1.318-.3 12.27-2.798 7.633 5.913 1.814 1.412 1.626 1.258-14.444 3.123-2.045-1.712-1.386-1.163-5.99-5.032-.796-.701zm25.867 6.426l1.326 1.027.462.359 6.555 5.074-14.803 3.508-8.086-6.845 14.546-3.123zm-17.113 2.498l-4.681 1.01h-.085l-24.532 5.305-1.018.223-7.513-8.857 8.257-1.882 19.304-4.398 10.268 8.599zm-29.264 7.53l23.582-5.134 2.028-.436 4.783-1.036 8.121 6.846-5.425 1.283-1.994.471-24.66 5.835-6.435-7.581-.197-.231.197-.017zm13.126 17.55l-12.578 3.046-8.043 1.951-6.255-8.702 14.024-3.32 5.733-1.352 7.119 8.377zm-12.553 4.278l13.409-3.243 8.06 9.507-21.152 5.578-.359.095-7.291-10.157 7.333-1.78zm6.726-12.938l24.814-5.869 1.994-.471 5.519-1.309 9.138 7.701-3.978.967-7.701 1.856-22.71 5.511-7.076-8.386zm33.773-7.991l14.846-3.509 3.123 2.422 6.52 5.057-6.52 1.583-8.839 2.139-9.13-7.692zm17.969-2.567l-1.652-1.284 1.652-.394 10.268-2.421 10.422 7.213-12.681 3.072-8.009-6.186zm0-2.893l-2.849.676-7.102-5.502-1.241-.941 3.149-.684 8.009-1.712h.145l8.796 6.093-8.907 2.07zm-24.669-16.257l-6.357-4.912 9.515-2.045 6.759 4.681-9.917 2.276zm-1.489.342l-11.063 2.524-1.712.385-.736.171-6.092-5.134 8.557-1.839 4.723-1.018 6.323 4.911zm-14.957 3.423l-18.302 4.158-9.088 2.071-4.911-5.776 13.793-2.969 12.339-2.661 6.169 5.177zm-28.647 6.528l-10.405 2.371-7.239 1.651-4.381-6.101 11.38-2.447 5.707-1.266 4.938 5.792zm-10.362 3.577l11.217-2.567 7.47 8.822-18.371 3.979-.513.111-6.375-8.882 6.572-1.463zm19.543 7.273l1.557 1.831 5.091 5.99-4.894 1.207-14.743 3.422-5.99-8.368 18.979-4.082zm16.771 17.926l21.032-5.134 9.113-2.216 4.484-1.086 9.138 7.701.685.573-.685.18-35.732 9.412-8.035-9.43zm43.776-2.241l-7.701-6.503 7.701-1.866 7.701-1.874 10.131 7.864-15.753 4.158-2.079-1.779zm9.181-10.602l12.784-3.098 10.678 7.393-13.374 3.526-10.088-7.821zm14.324-3.466l14.683-3.559 11.226 6.897-15.273 4.073-10.636-7.411zm-1.301-.907l-10.405-7.204 13.691-3.243 11.26 6.922-14.546 3.525zm-11.731-8.111l-8.762-6.067 13.117-2.832 9.267 5.647-13.622 3.252zm-10.088-6.982l-.402-.283-11.843-8.197 11.689-2.67.154.094 13.391 8.24-12.989 2.816zm-13.563-9.413l-6.734-4.663 11.124-2.396 7.196 4.424-11.586 2.635zm-23.41-5.134l2.849 2.199-3.508.753-1.712.368-7.974 1.712-3.509-2.952 4.279-.856 1.574-.308h.069l5.519-1.104 1.711-.334.462.368.24.154zm-23.103 3.936l7.795-1.557 3.534 2.978-11.227 2.421-14.649 3.209-2.969-3.5 17.516-3.551zm-15.839 7.273l-4.92 1.061-12.09 2.567-2.747-3.833 14.692-2.935 2.079-.411 2.986 3.551zm-18.268 3.937l-15.402 3.311-2.37-4.176 14.991-2.995 2.781 3.86zm.753 1.043l4.389 6.118-16.257 3.705-3.662-6.477 15.53-3.346zm5.134 7.154l6.366 8.864-17.695 3.834-5.066-8.959 16.395-3.739zm7.119 9.917l1.121 1.532 4.886 6.845-.454.103-18.32 4.338-5.074-8.976 17.841-3.842zm-8.197 23.274l-21.931 5.382-4.013-9.489 20.793-4.92 5.151 9.027zm.599 1.07l6.186 10.926-23.291 6.221-4.954-11.723 22.059-5.424zm6.785 11.979l7.367 13.04-24.899 7.085-5.905-13.879 23.437-6.246zm1.181-.308l21.391-5.648 8.754 12.177-22.786 6.485-7.359-13.014zm22.649-5.99l21.623-5.647 9.652 11.372-22.598 6.426-8.677-12.151zm22.915-5.989l34.885-9.207 1.789-.471 11.799 10.02-38.864 11.055-9.609-11.397zm38.043-10.072l15.847-4.133 12.236 9.481-16.258 4.629-11.825-9.977zm17.267-4.552l13.468-3.551 12.955 8.976-14.213 4.039-12.21-9.464zm14.966-3.859l15.402-4.056 13.69 8.412-16.146 4.594-12.946-8.95zm16.985-4.492l13.776-3.628 14.024 8-14.144 4.022-13.656-8.394zm-1.387-.856l-11.183-6.845 13.425-3.286 11.44 6.529-13.682 3.602zm-12.595-7.752l-11.252-6.914 12.835-3.037 11.765 6.708-13.348 3.243zm-12.672-7.795l-9.233-5.63 12.561-2.721 9.412 5.365-12.74 2.986zm-10.662-6.555l-13.571-8.342 11.526-2.627 14.546 8.283-12.501 2.686zm-15.008-9.232h-.052l-7.144-4.39 7.119-1.531 4.124-.856 7.384 4.218-11.431 2.559zm-.052-7.145l-3.833.856h-.086l-4.68 1.044-.539-.334-.496-.308-2.696-1.66 9.875-1.968 1.292-.257 3.722 2.122-2.559.505zm-15.487-1.018l-10.73 2.139-5.759-3.996 10.183-2.019 6.306 3.876zm-12.339 2.456l-9.13 1.822-.265-.205-1.711-1.326-3.303-2.567 3.303-.659 1.711-.343 3.628-.718 5.767 3.996zm-11.123 1.788l.445.342-.445.086-12.647 2.524-4.946-4.167 12.75-2.567 4.843 3.782zm-14.119 3.243l-6.845 1.378-18.115 3.61-2.695-3.174-1.121-1.249 1.01-.197 16.257-3.235 6.563-1.309 4.946 4.176zm-27.646 3.713l1.309 1.541-16.643 3.328-3.251-4.535 16.163-3.209 2.422 2.875zm-16.617 5.134l-14.846 2.961-2.636-4.655 14.23-2.832 3.252 4.526zm-16.07 3.209l-16.6 3.312-2.019-4.792 15.975-3.166 2.644 4.646zm.616 1.078l2.371 4.193-17.191 3.705-1.925-4.561 16.745-3.337zm2.978 5.271l3.679 6.495-18.097 4.124-2.909-6.888 17.327-3.731zm4.278 7.564l5.057 8.942-19.492 4.218-3.799-9.001 18.234-4.159zm5.665 10.02l5.065 8.985-20.647 4.885-4.073-9.634 19.655-4.236zm-12.236 24.754l-22.059 5.348-2.824-9.908 20.861-4.937 4.022 9.497zm.462 1.104l4.963 11.74-23.617 6.229-3.568-12.587 22.222-5.382zm5.425 12.835l5.878 13.896-25.43 7.231-4.201-14.863 23.753-6.264zm6.34 14.991l6.846 16.258-27.441 8.437L299.019 304l25.524-7.299zm1.147-.325l25.037-7.127 8.616 15.222-26.782 8.163-6.871-16.258zm26.175-7.453l22.931-6.528 10.217 14.238-24.54 7.487-8.608-15.197zm24.138-6.845l22.701-6.452 11.371 13.392-23.873 7.281-10.199-14.221zm23.958-6.845l39.113-11.124 13.981 11.774-41.722 12.741-11.372-13.391zm40.482-11.517l16.343-4.647 14.546 11.252-16.899 5.134-13.99-11.739zm17.746-5.049l14.324-4.013 15.402 10.662-15.214 4.637-14.512-11.286zm15.787-4.483l16.258-4.621 16.258 10.02-17.182 5.236-15.334-10.635zm17.79-5.066l14.221-4.039 16.771 9.575-14.709 4.484-16.283-10.02zm15.829-4.484l13.315-3.79 17.258 9.104-13.844 4.227-16.729-9.541zm-1.429-.855l-13.973-7.949 12.835-3.38 14.401 7.589-13.263 3.74zm-15.461-8.805l-11.398-6.495 12.459-3.02 11.679 6.161-12.74 3.354zm-12.887-7.35l-11.765-6.709 11.808-2.789 12.33 6.503-12.373 2.995zm-13.262-7.564l-9.361-5.34 11.5-2.481 9.583 5.048-11.722 2.773zm-10.867-6.187l-14.547-8.291 10.405-2.379 15.539 8.197-11.397 2.473zm-16.061-9.155l-7.359-4.202 10.071-2.173 7.616 4.022-10.328 2.353zm-8.899-5.074l-3.688-2.105 9.986-1.994 3.687 1.942-9.985 2.157zm-5.245-2.995l-6.666-3.808 9.506-1.882 7.051 3.713-9.891 1.977zm-10.012-4.347l-10.644 2.122-6.845-4.21 10.772-1.711 6.717 3.799zm-34.081 6.785l-12.672 2.516-6.64-5.587 12.698-2.054 6.614 5.125zm-14.144 2.815l-6.486 1.293-15.213 3.02-1.84.368-5.682-6.691 7.256-1.173 9.01-1.454 6.247-1.01 6.708 5.647zm-24.865 4.938l-16.035 3.191-5.306-7.384 15.633-2.567 5.708 6.76zm-17.31 3.422l-14.085 2.798-4.577-8.034 13.322-2.157 5.34 7.393zm-15.308 3.046l-15.839 3.149-3.756-8.864 14.991-2.422 4.604 8.137zm-17.028 3.423l-15.582 3.098-2.738-9.669 14.547-2.353 3.773 8.924zm.471 1.104l2.028 4.792-16.361 3.26-1.394-4.92 15.727-3.132zm2.498 5.904l1.934 4.578-17.036 3.671-1.404-4.955 16.506-3.294zm2.405 5.682l2.909 6.896-18.029 4.107-2.071-7.298 17.191-3.705zm3.379 8l3.8 8.993-19.415 4.193-2.567-9.045 18.182-4.141zm4.279 10.097l4.081 9.652-20.724 4.903-2.918-10.328 19.561-4.227zm-14.675 25.875l-24.164 5.853-1.335-10.405 22.684-5.365 2.815 9.917zm.317 1.138l3.568 12.638-26.149 6.846-1.712-13.605 24.293-5.879zm3.893 13.742l4.218 14.889-28.485 8.103-2.053-16.052 26.32-6.94zm4.535 16.027l4.937 17.421-31.172 9.498-2.413-18.773 28.648-8.146zm5.254 18.551l5.989 21.117-34.354 11.535-2.97-23.103 31.335-9.549zm1.129-.343l27.664-8.437 8.24 19.484-29.948 10.037-5.956-21.084zm28.819-8.813l26.911-8.206 10.165 17.969-28.853 9.686-8.223-19.449zm28.066-8.557l24.677-7.521 11.911 16.591-26.449 8.899-10.139-17.969zm25.841-7.855l23.958-7.307 13.092 15.402-25.182 8.454-11.868-16.549zm25.208-7.701l41.987-12.835 15.693 13.22-44.614 14.974-13.066-15.359zm43.331-13.211l16.967-5.134 16.147 12.51-17.447 5.852-15.667-13.228zm18.345-5.596l15.316-4.664 16.942 11.732-16.154 5.416-16.104-12.484zm16.754-5.134l17.293-5.271 17.686 10.944-18.106 6.075-16.873-11.748zm18.824-5.725l14.778-4.509 18.037 10.268-15.145 5.091-17.67-10.85zm16.335-4.979l13.913-4.279 18.388 9.695-14.315 4.809-17.986-10.225zm15.513-4.732l12.647-3.859 18.825 9.13-13.101 4.389-18.371-9.66zm-1.48-.788l-17.216-9.078 11.979-3.423 17.815 8.651-12.578 3.85zm-18.748-9.831l-14.358-7.573 11.432-3.029 14.82 7.196-11.894 3.406zm-15.898-8.386l-11.628-6.135 11.003-2.669 11.98 5.81-11.355 2.994zm-13.211-6.965l-12.313-6.494 10.268-2.439 12.929 6.281-10.884 2.652zm-13.896-7.333l-9.532-5.031 9.934-2.148 9.806 4.766-10.208 2.413zm-11.124-5.887l-15.573-8.214 8.779-1.994 16.634 8.078-9.84 2.13zm-17.173-9.053l-7.581-4.004 8.385-1.806 7.881 3.825-8.685 1.985zm-9.207-4.86l-3.645-1.925 8.257-1.643 3.679 1.78-8.291 1.788zm-5.305-2.798l-7.042-3.713 7.701-1.541 7.47 3.628-8.129 1.626zm-8.702-4.586l-6.435-3.423 7.701-1.241 6.409 3.115-7.675 1.549zm-8.172-4.278l-5.476-2.884 7.307-1.121 5.733 2.789-7.564 1.216zm-1.934.316l-8.3 1.301-1.129.179-5.297-3.012 2.43-.367 6.769-1.036 5.527 2.935zm-11.26 1.823l-10.679 1.711-5.134-3.157 10.448-1.643 5.365 3.089zm-23.873 3.85l-8.146 1.318-4.45-3.423 7.796-1.189 4.8 3.294zm-9.729 1.54l-12.613 2.037-4.278-3.603 12.416-1.899 4.475 3.465zm-14.153 2.285l-6.169 1.001-7.941 1.284-8.103 1.309-3.363-3.962 11.312-1.711 4.048-.625 5.929-.898 4.287 3.602zm-23.616 3.782l-15.513 2.567-2.987-4.159 15.129-2.31 3.371 3.902zm-16.814 2.712l-13.177 2.131-2.473-4.372 12.655-1.934 2.995 4.175zm-14.418 2.328l-14.854 2.439-1.942-4.604 14.306-2.182 2.49 4.347zm-16.043 2.567l-14.41 2.327-1.36-4.8 13.819-2.105 1.951 4.578zm-15.582 2.575l-14.666 2.371-.659-5.074 13.956-2.131 1.369 4.834zm.325 1.147l2.738 9.686-16.257 3.226-1.327-10.55 14.846-2.362zm3.063 10.824l1.395 4.929-17.113 3.422-.659-5.082 16.377-3.269zm1.712 6.067l1.403 4.971-18.037 3.885-.694-5.408 17.328-3.448zm1.711 6.109l2.071 7.316-19.278 4.398-1.002-7.795 18.209-3.919zm2.396 8.454l2.567 9.036-20.844 4.509-1.172-9.112 19.449-4.433zm2.875 10.174l2.978 10.362-22.521 5.322-1.421-11.123 20.964-4.561zm-19.253 27.535l-25.918 6.281.189-10.927 24.395-5.767 1.334 10.413zm.154 1.181l1.712 13.631-28.04 7.376.256-14.718 26.072-6.289zm1.9 14.812l2.062 16.069-30.658 8.719.308-17.336 28.288-7.452zm2.208 17.25l2.413 18.824-33.594 10.268.36-20.27 30.821-8.822zm2.567 19.988l2.96 23.103-37.187 12.501.454-25.31 33.773-10.294zm3.114 24.318l3.799 29.58-41.739 15.813.582-32.857 37.358-12.536zm1.147-.385l34.526-11.586 7.538 26.629-38.274 14.495-3.79-29.538zm35.647-11.979l30.068-10.089 10.268 24.25-32.798 12.424-7.538-26.585zm31.223-10.482l28.981-9.695 12.501 22.102-31.257 11.834-10.225-24.241zm30.128-10.114l26.525-8.908 14.47 20.16-28.511 10.841-12.484-22.093zm27.732-9.301l25.276-8.48 15.736 18.534-26.577 10.062-14.435-20.116zm26.525-8.891l44.854-15.051 18.431 15.531-47.583 18.02-15.702-18.5zm46.164-15.487l17.464-5.836 18.824 14.547-17.969 6.794-18.319-15.505zm18.824-6.323l16.258-5.451 19.543 13.528-17.028 6.452-18.773-14.529zm17.644-5.922l18.2-6.109 20.219 12.433-18.936 7.17-19.483-13.494zm19.68-6.597l15.214-5.134 20.407 11.637-15.47 5.862-20.151-12.365zm16.711-5.613l14.393-4.826 20.612 10.876-14.666 5.553-20.339-11.603zm15.898-5.339l13.178-4.415 20.878 10.139-13.511 5.134-20.545-10.858zm27.193-10.362l-13.93 4.672-18.764-9.07 13.69-4.167 19.004 8.565zm-20.612-9.318l-13.606 4.141-17.772-8.634 13.178-3.748 18.2 8.241zm-19.869-8.976l-13.1 3.73-14.777-7.179 12.834-3.422 15.043 6.871zm-16.788-7.599l-12.715 3.355-11.911-5.785 12.535-3.037 12.091 5.467zm-13.836-6.263l-12.459 3.02-12.92-6.272 11.936-2.823 13.443 6.075zm-15.205-6.845l-11.851 2.798-9.755-4.775 11.731-2.567 9.875 4.544zm-11.68-5.288l-11.637 2.455-16.668-8.094 10.601-2.388 17.704 8.027zm-19.415-8.831l-10.542 2.396-7.846-3.808 9.54-2.053-.128-.599 8.976 4.064zm-9.849-4.458l-10.268 2.208-3.628-1.763 8.779-1.754-.222-1.112 5.339 2.421zm-5.408-2.447l-10.268 2.036-7.47-3.628 9.892-1.959 7.846 3.551zm-9.694-4.39l-9.772 1.951-6.349-3.063 10.028-1.617 6.093 2.729zm-7.984-3.611l-9.925 1.601-5.75-2.79 9.763-1.489 5.912 2.678zm-12.33-5.578l4.493 2.027-9.712 1.506-4.279-2.087 9.498-1.446zm-11.534 1.711l4.278 2.096-7.196 1.095-4.081-2.147 6.999-1.044zm-14.059 2.096l5.134-.761 4.09 2.156-6.272.958-2.823.437-3.885-2.225 3.756-.565zm-5.656.856l3.894 2.225-10.388 1.583-3.714-2.276 10.208-1.532zm-11.979 1.797l3.722 2.293-9.215 1.403-3.423-2.361 8.916-1.335zm-10.61 1.591l3.423 2.362-7.701 1.172-3.141-2.43 7.419-1.104zm-9.019 1.344l3.149 2.438-12.33 1.883-3.063-2.482 12.244-1.839zM343 189.016l.299-.043 5.648-.855 2.969 2.507-5.836.856-2.977.453-12.159 1.857-2.276-2.678L343 189.016zm-15.77 2.319l2.285 2.678-15.009 2.293-2.002-2.746 14.726-2.225zm-16.026 2.396l1.993 2.772-12.51 1.908-1.625-2.866 12.142-1.814zm-13.392 1.994l1.626 2.875-14.161 2.164-1.258-2.977 13.793-2.062zm-14.999 2.241l1.266 2.978-13.691 2.088-.855-3.08 13.28-1.986zm-14.461 2.165l.856 3.081-13.777 2.105-.41-3.201 13.331-1.985zm-29.093 4.338l14.547-2.173.41 3.2-15.042 2.293.085-3.32zm-.077 4.518l15.248-2.25.651 5.091-15.959 2.567.06-5.408zm-.119 6.546l16.137-2.61 1.352 10.559-17.635 3.551.146-11.5zm-.146 12.707l17.824-3.534.65 5.083-18.611 3.713.137-5.262zm-.111 6.443l18.782-3.739.693 5.416-19.586 4.218.111-5.895zm-.129 7.111l19.758-4.279 1.001 7.804-20.904 4.766.145-8.291zm-.171 9.523l21.075-4.8 1.173 9.095-22.41 4.844.162-9.139zm22.393 5.468l1.429 11.123-24.215 5.733.214-11.979 22.572-4.877zm-40.139-49.509l17.396-2.567-.06 3.32-17.858 2.73.522-3.483zm-.702 4.672l17.969-2.755-.094 5.356-18.773 3.038.898-5.639zm-1.044 6.845l18.945-3.063-.248 11.543-20.648 4.107 1.951-12.587zm-2.096 13.802l20.81-4.141-.086 5.245-21.545 4.278.821-5.382zm-1.052 6.657l21.708-4.329-.103 5.912-22.581 4.86.976-6.443zm-1.164 7.701l22.743-4.894-.145 8.325-23.959 5.46 1.361-8.891zm-1.54 10.14l24.121-5.494-.163 9.122-25.345 5.485 1.387-9.113zm-1.575 10.396l25.508-5.519-.214 12.022-27.262 6.443 1.968-12.946zm-2.156 14.204l27.432-6.503-.196 10.935-28.973 7.034 1.737-11.466zm-1.934 12.732l29.153-7.059-.3 14.692-31.3 8.257 2.447-15.89zm-2.567 17.208l31.471-8.3-.308 17.353-34.004 9.677 2.841-18.73zm-3.037 20.005l34.183-9.72-.359 20.305-37.153 11.32 3.329-21.905zm-3.56 23.129l37.315-11.372-.445 25.336-41.071 13.785 4.201-27.749zm35.45 92.266l-52.991 23.103 7.35-48.414 46.403-17.575-.762 42.886zm-45.444-26.603l5.579-36.571 41.26-13.844-.539 32.909-46.3 17.506zm46.633 26.081l.762-42.783 41.928-15.873 4.894 37.932-47.584 20.724zm48.671-21.246l-4.852-37.829 38.445-14.546 9.498 33.567-43.091 18.808zm44.186-19.304l-9.489-33.508 32.934-12.467 12.75 30.171-36.195 15.804zm37.281-16.257l-12.732-30.12 31.386-11.894 15.402 27.159-34.056 14.855zm35.083-15.334l-15.334-27.099 28.665-10.858 17.558 24.472-30.889 13.485zm31.993-13.973l-17.473-24.455 26.68-10.097 18.901 22.248-28.108 12.304zm29.204-12.758l-18.825-22.247 47.814-18.106 21.64 18.234-50.629 22.119zm51.801-22.624l-21.562-18.165 17.969-6.846 21.956 17.011-18.363 8zm19.569-8.556l-21.87-16.951 17.113-6.477 22.589 15.641-17.832 7.787zm19.099-8.343l-22.513-15.599 19.03-7.204 23.103 14.229-19.62 8.574zm20.964-9.156l-23.103-14.169 15.539-5.887 23.171 13.22-15.607 6.836zm17.002-7.427l-23.103-13.168 14.726-5.579 23.24 12.253-14.863 6.494zm16.257-7.093l-23.154-12.211 13.571-5.134 23.342 11.338-13.759 6.007zm15.188-6.632l-23.248-11.294 14.161-5.365 23.197 10.499-14.11 6.16z" fill="#ededf4" fill-rule="nonzero"/><path d="M424.391 200.08v54.985l-58.776 13.271-20.852-26.542-1.84-53.103-.051-1.874 53.076-9.481 28.443 22.744z" fill="#ededf4" fill-rule="nonzero"/><path d="M424.391 200.465v54.6l-58.151 13.134-.625.137-20.852-26.542-1.84-53.103 21.742 19.92 59.726-8.146z" fill-opacity=".1" fill-rule="nonzero"/><path d="M424.391 200.636v54.429l-58.151 13.134-1.575-59.588 58.776-7.581.95-.394z" fill-opacity=".1" fill-rule="nonzero"/><path d="M392.098 195.228l-2.892-5.022-2.892-5.015-2.901 5.015-2.892 5.022h4.937v23.18h1.711v-23.18h4.929zM409.742 243.342l-2.892-5.022-2.003 3.474-14.957-14.17-1.172 1.24 15.248 14.453-.017.025-2.892 5.014h11.577l-2.892-5.014zM416.621 216.406l-5.442-1.994.907 5.228-19.509 3.483.3 1.686 19.5-3.483.787 4.501 4.441-3.714 4.45-3.713-5.434-1.994z" fill="#6c63ff" fill-rule="nonzero"/><path d="M184.411 272.88c-1.437-9.626-10.174-32.07-10.174-32.07a31.518 31.518 0 00-.521-1.994c-6.204-21.332-14.795-23.223-14.795-23.223l-30.752-6.554c.248.163.462.372.633.616-.154 0-.317 0-.488.068a12.06 12.06 0 01-2.695-5.827 16.08 16.08 0 01-.154-.984 21.64 21.64 0 006.529-15.487 21.642 21.642 0 00-9.276-17.755c1.455-1.541 1.497-3.688.419-5.827-2.43-5.04-7.701-8.223-13.109-9.772-4.141-1.189-8.633-1.575-12.732-.274a46.461 46.461 0 00-6.657 3.089c-4.09 2.045-8.556 3.654-11.663 7.008a3.476 3.476 0 00-1.163 2.815 7.609 7.609 0 001.155 2.045c.856 1.532.65 3.466.06 5.134-.591 1.669-1.48 3.217-1.9 4.929-.419 1.711-.256 3.722 1.027 4.945.617.488 1.26.942 1.925 1.361.7.599 1.316 1.29 1.831 2.054l3.646 4.92a50.555 50.555 0 014.552 6.939 33.7 33.7 0 002.823 5.288c.356.467.763.892 1.215 1.266l-.359-.137a5.52 5.52 0 004.073 1.566h.188a1.1 1.1 0 00.736-.299v.676c.069 2.361.051 4.877-.111 7.239l-.283-.146a2.475 2.475 0 00-2.652.283L67.408 237.49s-6.161 8.428-5.297 22.957l-4.963 21.802s-6.212 18.5-1.437 31.72a5202.003 5202.003 0 007.538 20.758s1.917 15.008 4.775 16.258c2.858 1.249 4.107 1.891 4.107 1.891l.573 3.585s.189.351.522.941c2.088 3.628 9.815 16.429 14.307 15.06.561 3.479.804 7.002.727 10.525l4.441 29.819s3.098 8.121 2.91 12.365c-.189 4.244 3.628 10.268 3.628 10.268a19.684 19.684 0 00-1.909 13.879c1.814 7.923 4.108 44.545 4.108 44.545l3.337 8.874-.069 10.328a9.99 9.99 0 01-2.053 4.612c-2.148 2.327-2.003 5.022-7.162 8.205-5.16 3.183-8.446 4.39-8.446 8.634a11.015 11.015 0 01-.154 1.711c-.479 3.106-1.411 4.775 8.103 5.682a25.048 25.048 0 0018.611-6.229c5.095-4.521 1.652-2.978 9.412-4.176 0 0 2.644-.145 2.79-2.481.051-.805.043-2.353 0-4.048-.128-3.243-.436-7.016-.856-7.204-.419-.189-1.42-3.491-1.711-4.672h2.148s2.01-15.009 0-24.729c-2.011-9.72-.189-16.608-.189-16.608l-.385-25.67s-2.669-2.833-.573-7.838c2.096-5.006 0-29.726 0-29.726s.77-8.873 2.961-10.952c2.19-2.08.111-12.998 0-13.563l3.91 13.092s1.711 26.055 5.348 30.804l1.044 11.791s7.444 10.858 5.989 16.711c-1.454 5.853 1.532 26.996 1.532 26.996v21.614s-3.346 8.677 1.335 11.791l2.011-.077c-.685.616-1.172 1.549-1.943 2.345-.898.924-1.403 4.424-1.711 7.436a92.096 92.096 0 00-.317 4.74 7.866 7.866 0 005.733 3.423c3.723.213 16.036 9.626 16.036 9.626s12.176 0 15.325-.633h.179a4.17 4.17 0 002.379-1.943 4.915 4.915 0 00.573-3.568c-.385-1.865-1.865-3.902-5.134-5.639-8.171-4.278-9.412-8.342-9.412-8.342l-5.339-8.018h.761s-.479-8.488 5.339-18.029l-.376-42.056s2.387-14.443-1.711-22.247c0 0-.334-8.308 2.404-10.85 2.738-2.541-3.645-28.322-3.645-28.322s-1.309-13.828-2.884-26.449c6.444 6.11 13.135-15.898 14.256-19.8h.162s0-.111-.077-.291l.077-.282s-1.429-5.091-.385-4.056c1.044 1.035 3.628-2.832 3.628-2.832s-.376-21.05 4.107-31.66c4.484-10.61-1.985-36.408-1.985-36.408zm-19.192 13.434v-.052c.667 12.835-.129 40.276-.129 40.276s-.855 3.509-1.831 7.65l-.676-26.055-.641-24.54 3.277 2.721zm-82.144-8.856s3.243 40.584 0 46.436c-.924 1.66-1.711 4.63-2.344 8.018-1.07-2.815-3.338-9.412-2.567-12.929 1.043-4.527-2.105-16.42-2.105-16.703 0-.282-.283-6.605 2.01-11.466 2.294-4.86.762-6.939.762-6.939s1.917-7.975 4.21-6.46l.034.043z" fill="url(#_Linear1)" fill-rule="nonzero"/><path d="M90.939 368.808c-2.824 12.433-14.067-6.357-16.626-10.867l-.522-.932 1.224-5.716 6.443-2.627a17.914 17.914 0 012.883 1.874c3.526 2.755 8.78 8.651 6.598 18.268zM178.165 348.478s0 .094-.068.273l-.095.308c-1.095 3.877-7.658 25.722-13.981 19.681-6.931-6.649-3.56-21.931-3.56-21.931h.043l14.546-1.489 2.884 2.961.231.197z" fill="#ebc8b2" fill-rule="nonzero"/><path d="M169.728 455.94l.368 41.68c-5.707 9.472-5.237 17.9-5.237 17.9l-18.824.745c-4.595-3.089-1.309-11.706-1.309-11.706v-21.443s-2.91-20.981-1.506-26.791c1.403-5.809-5.896-16.582-5.896-16.582l-1.035-11.706c-3.56-4.689-5.245-30.547-5.245-30.547l-3.834-12.997c.103.564 2.088 11.457 0 13.468-2.088 2.01-2.9 10.867-2.9 10.867s2.062 24.549 0 29.511c-2.063 4.963.556 7.778.556 7.778l.376 25.482s-1.78 6.845.188 16.48c1.968 9.635 0 24.549 0 24.549h-20.253l.094-10.396-3.26-8.848s-2.25-36.348-4.03-44.22a19.735 19.735 0 011.874-13.768c2.272-4.209-3.748-5.99-3.56-10.217.188-4.227-2.841-12.227-2.841-12.227l-4.355-29.606a57.343 57.343 0 00-2.156-16.865c-2.567-8.428-6.272-19.484-6.272-19.484l4.227.377 21.391 1.899s51.896-3.491 54.224-.59a9.57 9.57 0 01.975 3.02c2.327 10.474 5.408 43.263 5.408 43.263s6.28 25.576 3.585 28.108c-2.695 2.533-2.362 10.765-2.362 10.765 3.945 7.76 1.609 22.101 1.609 22.101z" fill="#2f2e41" fill-rule="nonzero"/><path d="M125.858 528.466c-.145 2.319-2.738 2.456-2.738 2.456-7.59 1.198-9.207 4.15-9.207 4.15a24.44 24.44 0 01-18.268 6.187c-9.336-.856-8.42-2.567-7.949-5.648.096-.565.148-1.137.154-1.711 0-4.219 3.226-5.408 8.291-8.557 5.066-3.149 4.912-5.835 7.025-8.146 2.114-2.31 2.319-6.845 2.319-6.845 2.387-4.15 8.428.625 8.428.625.283 1.471 9.276 1.266 9.276 1.266s1.198 4.775 1.805 5.057c.411.188.71 3.936.856 7.153.042 1.635.06 3.158.008 4.013z" fill="#303d5c" fill-rule="nonzero"/><path d="M125.858 528.466c-.145 2.319-2.738 2.456-2.738 2.456-7.59 1.198-9.207 4.15-9.207 4.15a24.44 24.44 0 01-18.268 6.187c-9.336-.856-8.42-2.567-7.949-5.648 4.167 1.036 12.15 2.482 16.796-.051 6.469-3.508 11.124-5.99 11.124-5.99l10.225-5.134c.051 1.652.069 3.175.017 4.03z" fill-opacity=".1" fill-rule="nonzero"/><path d="M183.042 540.925a4.092 4.092 0 01-2.336 1.934h-.179c-3.089.624-15.043.624-15.043.624s-12.082-9.335-15.736-9.549a7.7 7.7 0 01-5.621-3.423c-1.267-1.923.068-2.173.308-4.697.282-2.995.778-6.469 1.66-7.384 1.617-1.712 1.968-4.005 5.621-2.567 0 0 5.194-9.148 11.304-2.08l6.332 9.601s1.189 4.004 9.207 8.291c3.208 1.712 4.663 3.739 5.039 5.588a4.96 4.96 0 01-.556 3.662z" fill="#303d5c" fill-rule="nonzero"/><path d="M183.042 540.925c-.719.607-1.506 1.258-2.336 1.934h-.179c-3.089.624-15.043.624-15.043.624s-12.082-9.335-15.736-9.549a7.7 7.7 0 01-5.621-3.423c-1.267-1.923.068-2.173.308-4.697 3.713 1.112 9.352 3.08 10.867 5.194 2.31 3.226 9.352 7.701 9.352 7.701s13.117-1.258 18.944-1.438a4.963 4.963 0 01-.556 3.654z" fill-opacity=".1" fill-rule="nonzero"/><path d="M131.959 213.993l-17.293 18.268s-20.938-1.54-17.284-7.701c1.865-3.148 2.156-9.746 1.993-15.478-.154-5.528-.727-10.268-.727-10.268s29.375-14.615 27.125-.984a22.5 22.5 0 00-.086 7.786c1.301 6.88 6.272 8.377 6.272 8.377z" fill="#ebc8b2" fill-rule="nonzero"/><path d="M125.79 197.83a22.5 22.5 0 00-.086 7.786c-3.919 3.962-9.361 3.089-15.402 3.089-3.987 0-8.265.06-11.474-1.831-.154-5.528-.188-8.06-.188-8.06s29.4-14.615 27.15-.984z" fill-opacity=".1" fill-rule="nonzero"/><path d="M131.959 189.264c-.005 11.873-9.775 21.64-21.648 21.64-11.868-.005-21.631-9.772-21.631-21.64 0-11.871 9.768-21.639 21.639-21.639 11.872 0 21.64 9.768 21.64 21.639z" fill="#ebc8b2" fill-rule="nonzero"/><path d="M161.411 351.686c-5.382 12.835-40.054 13.092-40.054 13.092v-13.982l-2.096-.136c.907 4.004-1.275 13.767-1.275 13.767-27.381 3.868-34.072-11.731-34.072-11.731l.949-5.339 21.392 1.899s51.896-3.491 54.223-.59c.477.948.792 1.969.933 3.02z" fill-opacity=".1" fill-rule="nonzero"/><path d="M121.357 363.092v-13.981l-2.096-.137c.907 4.004-1.275 13.768-1.275 13.768-20.621 2.909-29.503-5.211-32.635-9.413a13.038 13.038 0 01-1.437-2.327l8.359-47.062 1.968-69.308 3.021-12.151.693-5.835v-.069h.077l2.131.916 12.758 5.519 14.495-10.944.205-.163.727-.539 1.198.958 2.978 2.388 9.558 61.702s16.574 47.506 19.68 66.682c.12.761.222 1.471.299 2.147 2.02 17.524-40.704 17.849-40.704 17.849z" fill="#e1e7ef" fill-rule="nonzero"/><circle cx="114.469" cy="224.398" r="1.232" fill="#67647e"/><circle cx="115.034" cy="235.633" r="1.232" fill="#67647e"/><circle cx="116.266" cy="253.833" r="1.232" fill="#67647e"/><circle cx="118.303" cy="273.436" r="1.232" fill="#67647e"/><circle cx="119.535" cy="291.85" r="1.232" fill="#67647e"/><circle cx="120.767" cy="311.453" r="1.232" fill="#67647e"/><circle cx="120.279" cy="330.842" r="1.232" fill="#67647e"/><path d="M98.777 310.777s-1.378 18.029-3.902 23.274c-2.525 5.245-3.654 19.954-3.654 19.954l-5.87-.667a13.047 13.047 0 01-1.437-2.328l8.359-47.061 1.968-69.309 3.021-12.15.693-5.836h.086a2.389 2.389 0 012.087 0l.283.146c-.086.239-.171.487-.24.735-2.293 7.171-3.149 20.382-3.149 20.382s3.286 24.173 3.654 35.416c.368 11.244-1.899 37.444-1.899 37.444z" fill-opacity=".1" fill-rule="nonzero"/><path d="M84.341 350.54c-.066.15-.143.296-.231.436-2.276 3.851-8.043 6.298-9.797 6.965l-.522-.932 1.224-5.716 6.443-2.627a17.914 17.914 0 012.883 1.874z" fill-opacity=".1" fill-rule="nonzero"/><path d="M68.734 258.539l-5.339 3.191-4.869 21.64s-6.092 18.363-1.412 31.472a5005.134 5005.134 0 007.402 20.612s1.874 14.898 4.689 16.113c2.815 1.215 4.03 1.873 4.03 1.873l.556 3.56s7.624-2.567 10.328-7.145c2.704-4.578-1.985-15.898-1.985-15.898s-4.03-9.652-3.004-14.144c1.027-4.492-2.053-16.258-2.053-16.583 0-.325-.282-6.563 1.959-11.38 2.242-4.818.753-6.888.753-6.888l-1.403-13.776-9.652-12.647z" fill="#303d5c" fill-rule="nonzero"/><path d="M161.856 347.639s-14.144 5.339-18.645.65c-4.501-4.689-4.03-26.602-4.03-26.602s-4.278-40.473-7.025-47.122c-2.747-6.648-1.309-54.625-1.309-54.625s-1.831-6.204-3.423-7.821a1.494 1.494 0 00-.334-.274l.539.112 1.926.419 2.977 2.387 9.558 61.702s16.574 47.506 19.68 66.682l.086 4.492z" fill-opacity=".1" fill-rule="nonzero"/><path d="M178.165 349.042h-.163c-1.771.231-17.498 2.131-17.558-1.146-.001-.378.019-.755.06-1.13l14.546-1.489 2.884 2.961c.051.188.094.359.137.488l.094.316z" fill-opacity=".1" fill-rule="nonzero"/><path d="M163.08 236.865l10.336 5.391s8.557 22.247 9.986 31.839c0 0 6.374 25.593 1.968 36.126-4.407 10.533-4.022 31.42-4.022 31.42s-2.567 3.842-3.568 2.806c-1.001-1.035.376 4.031.376 4.031s-17.652 2.344-17.729-1.121c-.077-3.466 4.047-20.048 4.047-20.048s1.121-39.447-.47-45.624c-1.592-6.178-.924-44.82-.924-44.82z" fill="#303d5c" fill-rule="nonzero"/><path d="M132.25 278.869s-5.801 14.239-7.701 15.18c-1.899.941.368 4.68.368 4.68s10.619-14.803 7.333-19.86zM128.785 228.933c.068-.265-6.931 6.845-8.805 7.932-1.874 1.087 6.845-.06 8.805-7.932zM109.301 277.757s-10.679 6.905-9.275 9.635c1.403 2.729 9.275-9.635 9.275-9.635zM128.691 378.554s9.095 5.844 23.239 7.308l-23.239-7.308zM106.863 392.604s8.436 10.585 12.278 10.867c3.842.282-12.278-10.867-12.278-10.867zM118.671 434.104c-.377.188-4.783 9.558-9.276 9.84-4.492.282 9.276-9.84 9.276-9.84zM157.732 454.623s8.36-1.874 10.216 4.124c0 0-.564-1.874-10.216-4.124zM152.119 488.909s10.114-2.062 12.27.753c2.156 2.815-12.27-.753-12.27-.753zM123.48 493.692c0 .094-10.268 2.062-9.901 3.372.368 1.309 10.996 1.121 11.364-.942a1.956 1.956 0 00-1.463-2.43zM148.739 502.591s16.933-2.062 15.864 1.498c-1.07 3.559-15.864-1.498-15.864-1.498zM60.083 294.015c.095.282 11.124 1.779 12.647 5.339 0 0-10.867-5.057-12.552-5.057M75.665 322.996s-9.181 2.901-8.557 7.307c.625 4.407-.898-2.062 8.557-7.307zM71.387 345.295s3.345-4.595 6.528-3.748c3.184.847-6.528 3.748-6.528 3.748zM123.83 172.348a5.264 5.264 0 01-1.078.804c-2.661 1.54-3.38 3.919-4.655 6.657-1.163 2.507-2.464 5.134-4.826 6.589-3.046 1.84-7.067 1.164-10.268 2.772a7.99 7.99 0 00-4.235 7.83 22.71 22.71 0 00.898 3.585 25.227 25.227 0 01.967 7.795.992.992 0 010 .231 21.669 21.669 0 01-11.948-19.348c0-11.871 9.769-21.64 21.64-21.64 4.903 0 9.664 1.667 13.497 4.725h.008z" fill-opacity=".1" fill-rule="nonzero"/><path d="M123.266 165.836c-2.379-4.997-7.547-8.154-12.835-9.694-4.056-1.181-8.463-1.566-12.493-.274a45.877 45.877 0 00-6.529 3.063c-4.013 2.028-8.428 3.637-11.449 6.965a3.43 3.43 0 00-1.138 2.79 7.317 7.317 0 001.13 2.028c.856 1.523.633 3.422.06 5.134-.573 1.711-1.455 3.191-1.866 4.894-.41 1.703-.248 3.688 1.01 4.903.604.482 1.233.933 1.883 1.352.689.596 1.296 1.28 1.805 2.036l3.568 4.886a50.161 50.161 0 014.475 6.845 33.403 33.403 0 002.773 5.246c1.189 1.583 3.046 2.858 5.022 2.678a.96.96 0 00.788-.377c.073-.155.108-.325.102-.496a25.696 25.696 0 00-.967-7.786 22.047 22.047 0 01-.907-3.594 7.989 7.989 0 014.236-7.83c3.183-1.6 7.205-.924 10.268-2.763 2.362-1.429 3.662-4.082 4.826-6.589 1.275-2.747 1.985-5.134 4.655-6.666 2.669-1.531 2.9-4.124 1.583-6.751z" fill="#2f2e41" fill-rule="nonzero"/><path d="M113.571 519.568s3.294 4.218 2.447 6.605c-.847 2.388-2.447-6.605-2.447-6.605zM158.356 530.109s.736-5.656 3.688-5.707c2.952-.051 3.089-.299 5.34.556 2.25.856 4.363 2.216 3.696 2.422-.667.205-3.885-3.235-7.162-1.481a23.8 23.8 0 00-5.562 4.21zM103.722 230.122l9.241-6.503s-13.562-8.009-15.179-6.888c-1.617 1.121-2.721 11.252-2.721 11.252l8.659 2.139z" fill-opacity=".1" fill-rule="nonzero"/><path d="M103.654 229.694l9.275-6.64s-13.562-8.009-15.179-6.845c-1.617 1.164-2.721 11.808-2.721 11.808l8.625 1.677z" fill="#e1e7ef" fill-rule="nonzero"/><path d="M103.654 229.694l9.275-6.64s-13.562-8.009-15.179-6.845c-1.617 1.164-2.721 11.808-2.721 11.808l8.625 1.677z" fill-opacity=".03" fill-rule="nonzero"/><path d="M99.29 216.252l-.282-.145a2.405 2.405 0 00-2.567.273L68.64 238.936s-6.041 8.359-5.202 22.794l16.326 23.232s1.874-7.872 4.124-6.375c0 0 3.183 40.285 0 46.095-3.183 5.81-4.569 27.518-4.569 27.518l10.773 1.215s1.129-14.709 3.653-19.954c2.524-5.245 3.911-23.266 3.911-23.266s2.276-26.2 1.899-37.444c-.376-11.243-3.654-35.407-3.654-35.407s.916-14.144 3.389-21.092z" fill="#303d5c" fill-rule="nonzero"/><path d="M126.988 226.007l-11.56-4.279s14.717-16.112 16.548-7.17l-4.988 11.449z" fill-opacity=".1" fill-rule="nonzero"/><path d="M126.988 225.45l-11.56-4.278s14.717-16.146 16.531-7.179l-4.971 11.457z" fill="#e1e7ef" fill-rule="nonzero"/><path d="M126.988 225.45l-11.56-4.278s14.717-16.146 16.531-7.179l-4.971 11.457z" fill-opacity=".03" fill-rule="nonzero"/><path d="M126.611 211.743a.63.63 0 01.479.102l-.479-.102z" fill-opacity=".1" fill-rule="nonzero"/><path d="M127.732 210.622l30.659 6.605s8.428 1.874 14.546 23.043c6.118 21.17-8.334 47.113-8.334 47.113l-3.192-2.704 1.6 61.831s-14.153 5.339-18.645.658c-4.492-4.68-4.03-26.611-4.03-26.611s-4.278-40.473-7.025-47.121c-2.747-6.649-1.352-54.617-1.352-54.617s-2.516-8.574-4.227-8.197z" fill="#303d5c" fill-rule="nonzero"/><path d="M155.772 250.016c-.436.403-.941 19.107.933 33.371a181.4 181.4 0 005.314 25.67l-2.781-57.055s-2.157-3.201-3.466-1.986zM152.024 233.904c.745.471 4.022 8.24 2.525 11.432-1.498 3.192-2.525-11.432-2.525-11.432zM123.086 165.836a16.855 16.855 0 00-6.743-7.059 16.067 16.067 0 015.057 5.938c1.309 2.627.933 5.263-1.643 6.752-2.575 1.488-3.379 3.918-4.654 6.657-1.164 2.507-2.456 5.134-4.826 6.588-3.047 1.84-7.068 1.164-10.268 2.764a8.004 8.004 0 00-4.236 7.838c.203 1.217.503 2.416.899 3.585a25.226 25.226 0 01.966 7.795.966.966 0 01-.102.496.95.95 0 01-.787.377 4.66 4.66 0 01-2.311-.428 5.368 5.368 0 003.996 1.549.773.773 0 00.856-.856 25.475 25.475 0 00-.958-7.786 21.82 21.82 0 01-.907-3.594 7.987 7.987 0 014.278-7.829c3.174-1.6 7.196-.925 10.268-2.764 2.37-1.429 3.662-4.082 4.826-6.589 1.283-2.746 1.993-5.134 4.655-6.665 2.661-1.532 2.943-4.142 1.634-6.769z" fill-opacity=".1" fill-rule="nonzero"/><defs><linearGradient id="_Linear1" x1="0" y1="0" x2="1" y2="0" gradientUnits="userSpaceOnUse" gradientTransform="rotate(-90 332.643 211.679) scale(391.355)"><stop offset="0" stop-color="gray" stop-opacity=".25"/><stop offset=".54" stop-color="gray" stop-opacity=".12"/><stop offset="1" stop-color="gray" stop-opacity=".1"/></linearGradient></defs></svg>