<?xml version="1.0" encoding="UTF-8" standalone="no"?><!DOCTYPE svg PUBLIC "-//W3C//DTD SVG 1.1//EN" "http://www.w3.org/Graphics/SVG/1.1/DTD/svg11.dtd"><svg width="100%" height="100%" viewBox="0 0 800 600" version="1.1" xmlns="http://www.w3.org/2000/svg" xmlns:xlink="http://www.w3.org/1999/xlink" xml:space="preserve" xmlns:serif="http://www.serif.com/" style="fill-rule:evenodd;clip-rule:evenodd;stroke-miterlimit:10;"><path d="M608.095,93.297l-417.014,-0c-7.392,0.027 -13.454,6.129 -13.431,13.522l-0,287.013c-0.023,7.392 6.039,13.495 13.431,13.522l143.424,0l0,49.543l-6.538,-0c-3.741,0.013 -6.811,3.095 -6.811,6.835c0,0.008 0,0.017 0,0.025l0,9.94l13.349,-0l0,5.88l130.166,-0l0,-5.88l13.349,-0l0,-9.94c0,-0.008 0,-0.017 0,-0.025c0,-3.74 -3.07,-6.822 -6.81,-6.835l-6.152,-0l0,-0.428l-0.42,-0l0,-49.115l143.457,0c7.393,-0.027 13.454,-6.13 13.432,-13.522l-0,-287.013c0.022,-7.393 -6.039,-13.495 -13.432,-13.522Z" style="fill:url(#_Linear1);fill-rule:nonzero;"/><rect x="335.765" y="398.822" width="128.469" height="75.764" style="fill:#bdbdbd;"/><path d="M338.294,406.234l123.668,0c1.49,-6.481 2.684,-10.706 2.684,-10.706l-129.292,0c-0,0 1.326,4.208 2.94,10.706Z" style="fill-rule:nonzero;"/><path d="M194.202,95.767l411.596,0c7.273,0 13.258,5.985 13.258,13.259l0,253.561l-438.112,0l-0,-253.561c-0,-7.274 5.985,-13.259 13.258,-13.259Z" style="fill:#535461;fill-rule:nonzero;"/><path d="M605.798,403.763l-411.596,0c-7.273,0 -13.258,-5.985 -13.258,-13.258l-0,-27.918l438.112,0l0,27.918c0,7.273 -5.985,13.258 -13.258,13.258Z" style="fill:#bdbdbd;fill-rule:nonzero;"/><circle cx="400" cy="383.175" r="7.412" style="fill:#535461;"/><path d="M329.317,452.351l141.366,0c3.691,0 6.728,3.037 6.728,6.728l-0,9.743l-154.822,-0l0,-9.743c0,-3.691 3.037,-6.728 6.728,-6.728Z" style="fill:#bdbdbd;fill-rule:nonzero;"/><rect x="336.177" y="451.939" width="128.469" height="2.471"/><path d="M147.575,395.578l-59.623,-0l0.823,-6.704c16.85,-15.128 27.745,-55.431 27.745,-55.431c-0.242,0.034 -0.481,0.083 -0.717,0.148c-9.882,1.993 -16.915,6.053 -21.831,10.937l2.092,-17.838c31.129,-6.703 43.473,-47.879 43.473,-47.879c-19.863,4.406 -32.249,11.224 -39.941,17.697l3.064,-26.204c21.049,7.222 42.823,-31.146 42.823,-31.146l-0.824,-0.173l0.412,-0.263l-0.626,0.222c-23.264,-5.015 -35.699,8.285 -39.734,13.811l0.304,-2.57c-0.615,1.647 -1.213,3.261 -1.795,4.843l-0,0.065c-1.647,4.464 -3.154,8.873 -4.521,13.226c-1.192,3.717 -2.306,7.395 -3.344,11.035l0,-0.049c0,-0 -0.963,-23.437 -25.677,-29.606c0,0 2.594,51.116 22.177,42.749c-1.811,7.412 -3.294,14.544 -4.578,21.469c-0.818,4.508 -1.532,8.9 -2.142,13.177l-0.115,0.132l0.115,-0.099l-0.049,0.337c-0.549,3.882 -1.016,7.665 -1.4,11.348c0.379,-7.098 -0.914,-27.604 -25.076,-46.874c-0,-0 -32.117,56.444 22.647,67.528c0.123,0.107 0.247,0.214 0.362,0.313l-0.082,-0.255l0.494,0.107l0.222,-2.899c-0.66,12.099 -0.597,24.226 0.19,36.317c0.057,0.824 0.115,1.648 0.172,2.43l-60.306,-0c-23.009,47.591 12.781,73.672 12.781,73.672l98.823,-0c38.376,-48.374 13.662,-73.573 13.662,-73.573Z" style="fill:url(#_Linear2);fill-rule:nonzero;"/><path d="M84.592,413.646c-0,-0 -15.647,-68.352 18.941,-156.469" style="fill:none;fill-rule:nonzero;stroke:#535461;stroke-opacity:0.6;stroke-width:2.47px;"/><path d="M23.651,393.058l121.058,-0c-0,-0 23.882,30.47 -13.176,75.764l-95.529,-0c0,-0 -34.588,-31.294 -12.353,-75.764Z" style="fill:#6c63ff;fill-rule:nonzero;"/><path d="M101.795,261.706c0,0 12.032,-21.411 40.855,-14.823c0,-0 -23.824,40.567 -45.293,27.283l4.438,-12.46Z" style="fill:#4db6ac;fill-rule:nonzero;"/><path d="M94.169,284.427c0,0 -0.93,-21.897 -24.812,-27.662c-0,0 2.47,47.764 21.411,39.941l3.401,-12.279Z" style="fill:#4db6ac;fill-rule:nonzero;"/><path d="M86.363,316.767c-0,-0 4.405,-22.943 50.522,-32.826c0,0 -14.708,47.452 -52.647,45.549l2.125,-12.723Z" style="fill:#4db6ac;fill-rule:nonzero;"/><path d="M82.624,342.518c-0,0 4.85,-23.989 -23.973,-46.224c0,0 -31.294,53.257 22.63,63.271l1.343,-17.047Z" style="fill:#4db6ac;fill-rule:nonzero;"/><path d="M81.759,375.492c0,0 -3.343,-33.904 32.891,-40.492c0,-0 -13.234,47.344 -32.94,55.785l0.049,-15.293Z" style="fill:#4db6ac;fill-rule:nonzero;"/><path d="M97.768,274.471c0,-0 31.294,-23.882 44.47,-28" style="fill:none;fill-rule:nonzero;stroke:#535461;stroke-opacity:0.3;stroke-width:0.82px;"/><path d="M84.18,329.235c0,-0 37.882,-40.353 52.705,-45.294" style="fill:none;fill-rule:nonzero;stroke:#535461;stroke-opacity:0.3;stroke-width:0.82px;"/><path d="M69.357,256.765c-0,0 23.058,31.294 21.411,39.529" style="fill:none;fill-rule:nonzero;stroke:#535461;stroke-opacity:0.3;stroke-width:0.82px;"/><path d="M58.651,296.294c0,0 12.353,56 22.235,63.411" style="fill:none;fill-rule:nonzero;stroke:#535461;stroke-opacity:0.3;stroke-width:0.82px;"/><path d="M81.71,390.999c-0,-0 19.764,-54.352 32.94,-55.999" style="fill:none;fill-rule:nonzero;stroke:#535461;stroke-opacity:0.3;stroke-width:0.82px;"/><path d="M144.709,393.058l-121.058,-0c-0.271,0.551 -0.535,1.103 -0.823,1.647l117.763,-0c0,-0 23.298,29.737 -11.858,74.117l2.8,-0c37.058,-45.294 13.176,-75.764 13.176,-75.764Z" style="fill-rule:nonzero;"/><rect x="0" y="468.492" width="800" height="27.119" style="fill:#e0e0e0;"/><rect x="33.896" y="495.611" width="732.2" height="11.093" style="fill:#e0e0e0;"/><rect x="33.896" y="495.611" width="732.2" height="3.698" style="fill-opacity:0.1;"/><path d="M530.277,314l-260.46,-0c-3.677,-0.004 -6.702,-3.029 -6.706,-6.706l0,-160.605c0.003,-2.694 2.219,-4.91 4.913,-4.913l263.961,-0c2.741,0.003 4.995,2.257 4.998,4.998l0,160.52c-0.004,3.677 -3.029,6.702 -6.706,6.706Z" style="fill:#f2f2f2;fill-rule:nonzero;"/><path d="M521.856,305.533l-242.742,-0c-3.558,-0 -6.453,-2.711 -6.453,-6.043l-0,-139.857c-0,-2.471 2.145,-4.481 4.782,-4.481l246.005,-0c2.68,-0 4.861,2.043 4.861,4.555l-0,139.783c-0,3.332 -2.895,6.043 -6.453,6.043Z" style="fill:#fff;fill-rule:nonzero;"/><path d="M373.356,210.566l-12.149,0c-1.904,0 -3.471,-1.567 -3.471,-3.471c0,-1.904 1.567,-3.471 3.471,-3.471l12.149,0c1.904,0 3.471,1.567 3.471,3.471c0,1.904 -1.567,3.471 -3.471,3.471Z" style="fill:#ccc;fill-rule:nonzero;"/><path d="M387.675,222.281l-26.468,0c-1.904,0 -3.471,-1.567 -3.471,-3.471c0,-1.904 1.567,-3.471 3.471,-3.471l26.468,0c1.904,0 3.471,1.567 3.471,3.471c-0,1.904 -1.567,3.471 -3.471,3.471Z" style="fill:#ccc;fill-rule:nonzero;"/><path d="M375.526,261.765l-12.149,0c-1.905,0 -3.471,-1.567 -3.471,-3.471c-0,-1.904 1.566,-3.471 3.471,-3.471l12.149,0c1.904,0 3.471,1.567 3.471,3.471c-0,1.904 -1.567,3.471 -3.471,3.471Z" style="fill:#ccc;fill-rule:nonzero;"/><path d="M389.844,273.48l-26.467,0c-1.905,0 -3.471,-1.566 -3.471,-3.471c-0,-1.904 1.566,-3.471 3.471,-3.471l26.467,0c1.904,0 3.471,1.567 3.471,3.471c0,1.905 -1.567,3.471 -3.471,3.471Z" style="fill:#ccc;fill-rule:nonzero;"/><path d="M455.362,260.464l-12.149,-0c-1.905,-0 -3.472,-1.567 -3.472,-3.471c0,-1.905 1.567,-3.472 3.472,-3.472l12.149,0c1.904,0 3.471,1.567 3.471,3.472c-0,1.904 -1.567,3.471 -3.471,3.471Z" style="fill:#ccc;fill-rule:nonzero;"/><path d="M469.68,272.179l-26.467,-0c-1.905,-0 -3.472,-1.567 -3.472,-3.471c0,-1.905 1.567,-3.471 3.472,-3.471l26.467,-0c1.904,-0 3.471,1.566 3.471,3.471c0,1.904 -1.567,3.471 -3.471,3.471Z" style="fill:#ccc;fill-rule:nonzero;"/><path d="M454.06,212.736l-12.149,-0c-1.904,-0 -3.471,-1.567 -3.471,-3.471c-0,-1.905 1.567,-3.471 3.471,-3.471l12.149,-0c1.904,-0 3.471,1.566 3.471,3.471c-0,1.904 -1.567,3.471 -3.471,3.471Z" style="fill:#ccc;fill-rule:nonzero;"/><path d="M468.378,224.451l-26.467,-0c-1.904,-0 -3.471,-1.567 -3.471,-3.471c-0,-1.905 1.567,-3.471 3.471,-3.471l26.467,-0c1.904,-0 3.471,1.566 3.471,3.471c0,1.904 -1.567,3.471 -3.471,3.471Z" style="fill:#ccc;fill-rule:nonzero;"/><circle cx="339.772" cy="212.953" r="13.017" style="fill:#6c63ff;"/><path d="M345.847,218.81l-12.149,0c-0.714,-0 -1.301,-0.588 -1.302,-1.301l0,-9.112c0.001,-0.714 0.588,-1.301 1.302,-1.302l3.42,0c0.452,-0.001 0.873,0.234 1.109,0.62l0.953,1.55l6.667,-0c0.714,0 1.301,0.588 1.301,1.301l0,6.943c-0,0.713 -0.587,1.301 -1.301,1.301Zm-12.149,-10.847c-0.238,0 -0.434,0.196 -0.434,0.434l-0,9.112c0,0.238 0.196,0.433 0.434,0.434l12.149,-0c0.238,-0.001 0.433,-0.196 0.434,-0.434l-0,-6.943c-0.001,-0.238 -0.196,-0.433 -0.434,-0.434l-7.151,0l-1.208,-1.963c-0.079,-0.128 -0.219,-0.207 -0.37,-0.206l-3.42,0Z" style="fill:#fff;fill-rule:nonzero;"/><circle cx="419.608" cy="215.122" r="13.017" style="fill:#6c63ff;"/><path d="M425.249,223.366l-11.281,0c-0.714,-0.001 -1.301,-0.588 -1.302,-1.302l-0,-13.884c0.001,-0.714 0.588,-1.301 1.302,-1.302l8.174,0c0.296,0.001 0.584,0.102 0.815,0.287l3.107,2.497c0.308,0.246 0.487,0.62 0.486,1.015l0,11.387c-0,0.714 -0.587,1.301 -1.301,1.302Zm-11.281,-15.62c-0.238,0 -0.434,0.196 -0.434,0.434l-0,13.884c0,0.238 0.196,0.434 0.434,0.434l11.281,0c0.238,0 0.433,-0.196 0.434,-0.434l-0,-11.387c0,-0.132 -0.06,-0.257 -0.162,-0.339l-3.108,-2.496c-0.077,-0.062 -0.172,-0.096 -0.271,-0.096l-8.174,0Z" style="fill:#fff;fill-rule:nonzero;"/><path d="M423.079,212.953l-6.942,-0c-0.238,-0 -0.434,-0.196 -0.434,-0.434c0,-0.238 0.196,-0.434 0.434,-0.434l6.942,0c0.238,0 0.434,0.196 0.434,0.434c0,0.238 -0.196,0.434 -0.434,0.434Z" style="fill:#fff;fill-rule:nonzero;"/><path d="M423.079,215.556l-6.942,0c-0.238,0 -0.434,-0.196 -0.434,-0.434c0,-0.238 0.196,-0.434 0.434,-0.434l6.942,0c0.238,0 0.434,0.196 0.434,0.434c0,0.238 -0.196,0.434 -0.434,0.434Z" style="fill:#fff;fill-rule:nonzero;"/><path d="M423.079,218.159l-6.942,0c-0.238,0 -0.434,-0.195 -0.434,-0.433c0,-0.238 0.196,-0.434 0.434,-0.434l6.942,-0c0.238,-0 0.434,0.196 0.434,0.434c0,0.238 -0.196,0.433 -0.434,0.433Z" style="fill:#fff;fill-rule:nonzero;"/><circle cx="339.772" cy="264.152" r="13.017" style="fill:#6c63ff;"/><path d="M345.847,268.925l-12.149,-0c-0.714,-0.001 -1.301,-0.588 -1.302,-1.302l0,-6.942c0.001,-0.714 0.588,-1.301 1.302,-1.302l12.149,0c0.714,0.001 1.301,0.588 1.301,1.302l0,6.942c-0,0.714 -0.587,1.301 -1.301,1.302Zm-12.149,-8.678c-0.238,0 -0.434,0.196 -0.434,0.434l-0,6.942c0,0.238 0.196,0.434 0.434,0.434l12.149,-0c0.238,-0 0.433,-0.196 0.434,-0.434l-0,-6.942c-0.001,-0.238 -0.196,-0.434 -0.434,-0.434l-12.149,-0Z" style="fill:#fff;fill-rule:nonzero;"/><path d="M343.921,268.925l-8.732,-0c-0.476,-0 -0.867,-0.392 -0.867,-0.868c-0,-0.152 0.04,-0.302 0.116,-0.434l2.63,-4.556c0.155,-0.268 0.442,-0.434 0.752,-0.434c0.309,0 0.596,0.166 0.751,0.434l1.699,2.942l0.984,-1.704c0.155,-0.268 0.442,-0.434 0.752,-0.434c0.309,-0 0.596,0.166 0.751,0.434l1.916,3.318c0.076,0.132 0.116,0.282 0.116,0.434c0,0.476 -0.392,0.868 -0.868,0.868c0,-0 0,-0 0,-0l0,-0Zm0,-0.868l-1.915,-3.318l-1.36,2.355c-0.078,0.134 -0.221,0.217 -0.376,0.217c-0.155,0 -0.298,-0.083 -0.376,-0.217l-2.074,-3.593l-2.63,4.556l8.731,-0Z" style="fill:#fff;fill-rule:nonzero;"/><circle cx="344.545" cy="261.982" r="0.868" style="fill:#fff;"/><circle cx="420.476" cy="262.85" r="13.017" style="fill:#6c63ff;"/><path d="M420.476,263.067c-2.142,0 -3.905,-1.763 -3.905,-3.905c0,-2.142 1.763,-3.905 3.905,-3.905c2.142,0 3.905,1.763 3.905,3.905c-0.002,2.141 -1.764,3.903 -3.905,3.905Zm0,-6.942c-1.666,-0 -3.037,1.371 -3.037,3.037c-0,1.666 1.371,3.037 3.037,3.037c1.666,0 3.037,-1.371 3.037,-3.037c-0.002,-1.665 -1.372,-3.035 -3.037,-3.037Z" style="fill:#fff;fill-rule:nonzero;"/><path d="M423.947,270.443l-6.942,0c-0.833,-0.001 -1.518,-0.686 -1.519,-1.518c0,-2.738 2.253,-4.99 4.99,-4.99c2.737,-0 4.99,2.252 4.99,4.99c-0.001,0.832 -0.686,1.517 -1.519,1.518Zm-3.471,-5.64c-2.26,0.002 -4.119,1.861 -4.122,4.122c0,0.357 0.294,0.65 0.651,0.651l6.942,-0c0.357,-0.001 0.651,-0.294 0.651,-0.651c-0.003,-2.261 -1.862,-4.12 -4.122,-4.122Z" style="fill:#fff;fill-rule:nonzero;"/><path d="M536.89,147.525l-273.873,-0l-0,-3.415c0.005,-3.689 3.041,-6.723 6.73,-6.726l260.412,0c3.69,0.003 6.725,3.037 6.731,6.726l-0,3.415Z" style="fill:#3f3d56;fill-rule:nonzero;"/><circle cx="275.249" cy="142.464" r="1.741" style="fill:#fff;"/><circle cx="281.857" cy="142.464" r="1.741" style="fill:#fff;"/><circle cx="288.465" cy="142.464" r="1.741" style="fill:#fff;"/><path d="M417.807,166.217l-47.475,0c-1.464,0 -2.668,-1.204 -2.668,-2.668c-0,-1.464 1.204,-2.669 2.668,-2.669l47.475,-0c1.464,-0 2.669,1.205 2.669,2.669c0,1.464 -1.205,2.668 -2.669,2.668Z" style="fill:#ccc;fill-rule:nonzero;"/><path d="M299.751,166.217l-13.484,0c-1.464,0 -2.669,-1.204 -2.669,-2.668c-0,-1.464 1.205,-2.669 2.669,-2.669l13.484,-0c1.464,-0 2.668,1.205 2.668,2.669c0,1.464 -1.204,2.668 -2.668,2.668Z" style="fill:#ccc;fill-rule:nonzero;"/><path d="M357.234,166.217l-13.484,0c-1.463,-0.002 -2.666,-1.206 -2.666,-2.668c0,-1.463 1.203,-2.667 2.666,-2.669l13.484,-0c0.001,-0 0.002,-0 0.003,-0c1.464,-0 2.669,1.205 2.669,2.669c-0,1.464 -1.205,2.668 -2.669,2.668c-0.001,0 -0.002,0 -0.003,0Z" style="fill:#ccc;fill-rule:nonzero;"/><path d="M329.328,166.217l-13.484,0c-1.463,-0.002 -2.666,-1.206 -2.666,-2.668c0,-1.463 1.203,-2.667 2.666,-2.669l13.484,-0c0.001,-0 0.002,-0 0.003,-0c1.464,-0 2.669,1.205 2.669,2.669c-0,1.464 -1.205,2.668 -2.669,2.668c-0.001,0 -0.002,0 -0.003,0Z" style="fill:#ccc;fill-rule:nonzero;"/><path d="M751.643,459.664l0.082,-0.124c0.17,-0.263 0.338,-0.538 0.503,-0.823l0.09,-0.157c0.159,-0.269 0.31,-0.543 0.453,-0.823l0.074,-0.14c0.165,-0.321 0.321,-0.642 0.461,-0.98c0.297,-0.674 0.556,-1.364 0.775,-2.067l0.082,-0.272c0.074,-0.255 0.148,-0.51 0.214,-0.766l0.082,-0.362c0.055,-0.231 0.105,-0.464 0.149,-0.7c-0,-0.132 0.049,-0.264 0.074,-0.395c0.024,-0.132 0.074,-0.461 0.107,-0.7c0.033,-0.239 -0,-0.272 0.049,-0.404c0.05,-0.132 0.05,-0.502 0.066,-0.757l0,-69.489l-11.406,-0l0,-33.336l-14,-0l0,33.336l-9.651,-0l-0,-47.88l-14,0l-0,47.88l-5.262,-0l-0,-54.723l-14,0l-0,54.723l-12.353,-0l0,68.023c0,11.101 9.232,20.094 20.588,20.094l39.529,-0c6.548,0.026 12.735,-3.05 16.668,-8.285c0.203,-0.291 0.412,-0.582 0.626,-0.873Z" style="fill:url(#_Linear3);fill-rule:nonzero;"/><rect x="688.232" y="357.646" width="13.176" height="82.352" style="fill:#535461;"/><rect x="688.232" y="330.47" width="13.176" height="27.176" style="fill:#3ad29f;"/><rect x="706.349" y="364.235" width="13.176" height="82.352" style="fill:#535461;"/><rect x="706.349" y="337.058" width="13.176" height="27.176" style="fill:#4d8af0;"/><rect x="728.584" y="378.234" width="13.176" height="82.352" style="fill:#535461;"/><rect x="728.584" y="351.058" width="13.176" height="27.176" style="fill:#f55f44;"/><path d="M676.703,383.175l75.763,0l0,65.47c0,10.617 -8.736,19.353 -19.352,19.353l-37.059,0c-10.616,0 -19.352,-8.736 -19.352,-19.353l-0,-65.47Z" style="fill:#6c63ff;fill-rule:nonzero;"/><path d="M676.703,383.175l-0,3.295l72.469,-0l0,65.469c0.007,4.327 -1.444,8.532 -4.117,11.933c4.68,-3.661 7.417,-9.285 7.411,-15.227l0,-65.47l-75.763,0Z" style="fill-rule:nonzero;"/><defs><linearGradient id="_Linear1" x1="0" y1="0" x2="1" y2="0" gradientUnits="userSpaceOnUse" gradientTransform="matrix(2.36523e-14,-386.272,386.272,2.36523e-14,399.588,479.568)"><stop offset="0" style="stop-color:#808080;stop-opacity:0.25"/><stop offset="0.54" style="stop-color:#808080;stop-opacity:0.12"/><stop offset="1" style="stop-color:#808080;stop-opacity:0.1"/></linearGradient><linearGradient id="_Linear2" x1="0" y1="0" x2="1" y2="0" gradientUnits="userSpaceOnUse" gradientTransform="matrix(24078.9,0,0,24078.9,18601.8,119366)"><stop offset="0" style="stop-color:#808080;stop-opacity:0.25"/><stop offset="0.54" style="stop-color:#808080;stop-opacity:0.12"/><stop offset="1" style="stop-color:#808080;stop-opacity:0.1"/></linearGradient><linearGradient id="_Linear3" x1="0" y1="0" x2="1" y2="0" gradientUnits="userSpaceOnUse" gradientTransform="matrix(7905.86,0,0,7905.86,75941.2,81498.9)"><stop offset="0" style="stop-color:#808080;stop-opacity:0.25"/><stop offset="0.54" style="stop-color:#808080;stop-opacity:0.12"/><stop offset="1" style="stop-color:#808080;stop-opacity:0.1"/></linearGradient></defs></svg>