<svg viewBox="0 0 800 600" xmlns="http://www.w3.org/2000/svg" fill-rule="evenodd" clip-rule="evenodd" stroke-miterlimit="10"><path d="M608.095 93.297H191.081c-7.392.027-13.454 6.129-13.431 13.522v287.013c-.023 7.392 6.039 13.495 13.431 13.522h143.424v49.543h-6.538c-3.741.013-6.811 3.095-6.811 6.835v9.965h13.349v5.88h130.166v-5.88h13.349v-9.94-.025c0-3.74-3.07-6.822-6.81-6.835h-6.152v-.428h-.42v-49.115h143.457c7.393-.027 13.454-6.13 13.432-13.522V106.819c.022-7.393-6.039-13.495-13.432-13.522z" fill="url(#_Linear1)" fill-rule="nonzero"/><path fill="#bdbdbd" d="M335.765 398.822h128.469v75.764H335.765z"/><path d="M338.294 406.234h123.668c1.49-6.481 2.684-10.706 2.684-10.706H335.354s1.326 4.208 2.94 10.706z" fill-rule="nonzero"/><path d="M194.202 95.767h411.596c7.273 0 13.258 5.985 13.258 13.259v253.561H180.944V109.026c0-7.274 5.985-13.259 13.258-13.259z" fill="#535461" fill-rule="nonzero"/><path d="M605.798 403.763H194.202c-7.273 0-13.258-5.985-13.258-13.258v-27.918h438.112v27.918c0 7.273-5.985 13.258-13.258 13.258z" fill="#bdbdbd" fill-rule="nonzero"/><circle cx="400" cy="383.175" r="7.412" fill="#535461"/><path d="M329.317 452.351h141.366c3.691 0 6.728 3.037 6.728 6.728v9.743H322.589v-9.743c0-3.691 3.037-6.728 6.728-6.728z" fill="#bdbdbd" fill-rule="nonzero"/><path d="M336.177 451.939h128.469v2.471H336.177z"/><path d="M147.575 395.578H87.952l.823-6.704c16.85-15.128 27.745-55.431 27.745-55.431a5.665 5.665 0 00-.717.148c-9.882 1.993-16.915 6.053-21.831 10.937l2.092-17.838c31.129-6.703 43.473-47.879 43.473-47.879-19.863 4.406-32.249 11.224-39.941 17.697l3.064-26.204c21.049 7.222 42.823-31.146 42.823-31.146l-.824-.173.412-.263-.626.222c-23.264-5.015-35.699 8.285-39.734 13.811l.304-2.57c-.615 1.647-1.213 3.261-1.795 4.843v.065a284.332 284.332 0 00-4.521 13.226 354.402 354.402 0 00-3.344 11.035v-.049s-.963-23.437-25.677-29.606c0 0 2.594 51.116 22.177 42.749-1.811 7.412-3.294 14.544-4.578 21.469-.818 4.508-1.532 8.9-2.142 13.177l-.115.132.115-.099-.049.337a312.598 312.598 0 00-1.4 11.348c.379-7.098-.914-27.604-25.076-46.874 0 0-32.117 56.444 22.647 67.528l.362.313-.082-.255.494.107.222-2.899a304.105 304.105 0 00.19 36.317c.057.824.115 1.648.172 2.43H22.309C-.7 443.07 35.09 469.151 35.09 469.151h98.823c38.376-48.374 13.662-73.573 13.662-73.573z" fill="url(#_Linear2)" fill-rule="nonzero"/><path d="M84.592 413.646s-15.647-68.352 18.941-156.469" fill="none" stroke="#535461" stroke-opacity=".6" stroke-width="2.47"/><path d="M23.651 393.058h121.058s23.882 30.47-13.176 75.764H36.004s-34.588-31.294-12.353-75.764z" fill="#6c63ff" fill-rule="nonzero"/><path d="M101.795 261.706s12.032-21.411 40.855-14.823c0 0-23.824 40.567-45.293 27.283l4.438-12.46zM94.169 284.427s-.93-21.897-24.812-27.662c0 0 2.47 47.764 21.411 39.941l3.401-12.279zM86.363 316.767s4.405-22.943 50.522-32.826c0 0-14.708 47.452-52.647 45.549l2.125-12.723z" fill="#4db6ac" fill-rule="nonzero"/><path d="M82.624 342.518s4.85-23.989-23.973-46.224c0 0-31.294 53.257 22.63 63.271l1.343-17.047z" fill="#4db6ac" fill-rule="nonzero"/><path d="M81.759 375.492S78.416 341.588 114.65 335c0 0-13.234 47.344-32.94 55.785l.049-15.293z" fill="#4db6ac" fill-rule="nonzero"/><path d="M97.768 274.471s31.294-23.882 44.47-28M84.18 329.235s37.882-40.353 52.705-45.294M69.357 256.765s23.058 31.294 21.411 39.529M58.651 296.294s12.353 56 22.235 63.411M81.71 390.999s19.764-54.352 32.94-55.999" fill="none" stroke="#535461" stroke-opacity=".3" stroke-width=".82"/><path d="M144.709 393.058H23.651c-.271.551-.535 1.103-.823 1.647h117.763s23.298 29.737-11.858 74.117h2.8c37.058-45.294 13.176-75.764 13.176-75.764z" fill-rule="nonzero"/><path fill="#e0e0e0" d="M0 468.492h800v27.119H0zM33.896 495.611h732.2v11.093h-732.2z"/><path fill-opacity=".1" d="M33.896 495.611h732.2v3.698h-732.2z"/><path d="M530.277 314h-260.46c-3.677-.004-6.702-3.029-6.706-6.706V146.689c.003-2.694 2.219-4.91 4.913-4.913h263.961c2.741.003 4.995 2.257 4.998 4.998v160.52c-.004 3.677-3.029 6.702-6.706 6.706z" fill="#f2f2f2" fill-rule="nonzero"/><path d="M521.856 305.533H279.114c-3.558 0-6.453-2.711-6.453-6.043V159.633c0-2.471 2.145-4.481 4.782-4.481h246.005c2.68 0 4.861 2.043 4.861 4.555V299.49c0 3.332-2.895 6.043-6.453 6.043z" fill="#fff" fill-rule="nonzero"/><path d="M373.356 210.566h-12.149a3.488 3.488 0 01-3.471-3.471 3.488 3.488 0 013.471-3.471h12.149a3.488 3.488 0 013.471 3.471 3.488 3.488 0 01-3.471 3.471zM387.675 222.281h-26.468a3.488 3.488 0 01-3.471-3.471 3.488 3.488 0 013.471-3.471h26.468a3.488 3.488 0 013.471 3.471 3.488 3.488 0 01-3.471 3.471zM375.526 261.765h-12.149a3.487 3.487 0 01-3.471-3.471 3.487 3.487 0 013.471-3.471h12.149a3.488 3.488 0 013.471 3.471 3.488 3.488 0 01-3.471 3.471zM389.844 273.48h-26.467a3.486 3.486 0 01-3.471-3.471 3.487 3.487 0 013.471-3.471h26.467a3.488 3.488 0 013.471 3.471 3.487 3.487 0 01-3.471 3.471zM455.362 260.464h-12.149a3.488 3.488 0 01-3.472-3.471 3.488 3.488 0 013.472-3.472h12.149a3.488 3.488 0 013.471 3.472 3.488 3.488 0 01-3.471 3.471zM469.68 272.179h-26.467a3.488 3.488 0 01-3.472-3.471 3.487 3.487 0 013.472-3.471h26.467a3.487 3.487 0 013.471 3.471 3.488 3.488 0 01-3.471 3.471zM454.06 212.736h-12.149a3.488 3.488 0 01-3.471-3.471 3.487 3.487 0 013.471-3.471h12.149a3.487 3.487 0 013.471 3.471 3.488 3.488 0 01-3.471 3.471zM468.378 224.451h-26.467a3.488 3.488 0 01-3.471-3.471 3.487 3.487 0 013.471-3.471h26.467a3.487 3.487 0 013.471 3.471 3.488 3.488 0 01-3.471 3.471z" fill="#ccc" fill-rule="nonzero"/><circle cx="339.772" cy="212.953" r="13.017" fill="#6c63ff"/><path d="M345.847 218.81h-12.149a1.309 1.309 0 01-1.302-1.301v-9.112a1.31 1.31 0 011.302-1.302h3.42c.452-.001.873.234 1.109.62l.953 1.55h6.667c.714 0 1.301.588 1.301 1.301v6.943c0 .713-.587 1.301-1.301 1.301zm-12.149-10.847a.436.436 0 00-.434.434v9.112c0 .238.196.433.434.434h12.149a.437.437 0 00.434-.434v-6.943a.437.437 0 00-.434-.434h-7.151l-1.208-1.963a.432.432 0 00-.37-.206h-3.42z" fill="#fff" fill-rule="nonzero"/><circle cx="419.608" cy="215.122" r="13.017" fill="#6c63ff"/><path d="M425.249 223.366h-11.281a1.31 1.31 0 01-1.302-1.302V208.18a1.31 1.31 0 011.302-1.302h8.174c.296.001.584.102.815.287l3.107 2.497c.308.246.487.62.486 1.015v11.387c0 .714-.587 1.301-1.301 1.302zm-11.281-15.62a.436.436 0 00-.434.434v13.884c0 .238.196.434.434.434h11.281a.437.437 0 00.434-.434v-11.387a.436.436 0 00-.162-.339l-3.108-2.496a.431.431 0 00-.271-.096h-8.174z" fill="#fff" fill-rule="nonzero"/><path d="M423.079 212.953h-6.942a.436.436 0 01-.434-.434c0-.238.196-.434.434-.434h6.942c.238 0 .434.196.434.434a.436.436 0 01-.434.434zM423.079 215.556h-6.942a.436.436 0 01-.434-.434c0-.238.196-.434.434-.434h6.942c.238 0 .434.196.434.434a.436.436 0 01-.434.434zM423.079 218.159h-6.942a.435.435 0 01-.434-.433c0-.238.196-.434.434-.434h6.942c.238 0 .434.196.434.434a.435.435 0 01-.434.433z" fill="#fff" fill-rule="nonzero"/><circle cx="339.772" cy="264.152" r="13.017" fill="#6c63ff"/><path d="M345.847 268.925h-12.149a1.31 1.31 0 01-1.302-1.302v-6.942a1.31 1.31 0 011.302-1.302h12.149a1.308 1.308 0 011.301 1.302v6.942c0 .714-.587 1.301-1.301 1.302zm-12.149-8.678a.436.436 0 00-.434.434v6.942c0 .238.196.434.434.434h12.149a.437.437 0 00.434-.434v-6.942a.437.437 0 00-.434-.434h-12.149z" fill="#fff" fill-rule="nonzero"/><path d="M343.921 268.925h-8.732a.872.872 0 01-.751-1.302l2.63-4.556a.87.87 0 011.503 0l1.699 2.942.984-1.704a.87.87 0 011.503 0l1.916 3.318a.87.87 0 01.116.434.872.872 0 01-.868.868zm0-.868l-1.915-3.318-1.36 2.355a.435.435 0 01-.752 0l-2.074-3.593-2.63 4.556h8.731z" fill="#fff" fill-rule="nonzero"/><circle cx="344.545" cy="261.982" r=".868" fill="#fff"/><circle cx="420.476" cy="262.85" r="13.017" fill="#6c63ff"/><path d="M420.476 263.067c-2.142 0-3.905-1.763-3.905-3.905s1.763-3.905 3.905-3.905 3.905 1.763 3.905 3.905c-.002 2.141-1.764 3.903-3.905 3.905zm0-6.942a3.052 3.052 0 00-3.037 3.037 3.052 3.052 0 003.037 3.037 3.052 3.052 0 003.037-3.037 3.055 3.055 0 00-3.037-3.037zM423.947 270.443h-6.942a1.528 1.528 0 01-1.519-1.518c0-2.738 2.253-4.99 4.99-4.99s4.99 2.252 4.99 4.99a1.528 1.528 0 01-1.519 1.518zm-3.471-5.64c-2.26.002-4.119 1.861-4.122 4.122 0 .357.294.65.651.651h6.942a.655.655 0 00.651-.651c-.003-2.261-1.862-4.12-4.122-4.122z" fill="#fff" fill-rule="nonzero"/><path d="M536.89 147.525H263.017v-3.415c.005-3.689 3.041-6.723 6.73-6.726h260.412c3.69.003 6.725 3.037 6.731 6.726v3.415z" fill="#3f3d56" fill-rule="nonzero"/><circle cx="275.249" cy="142.464" r="1.741" fill="#fff"/><circle cx="281.857" cy="142.464" r="1.741" fill="#fff"/><circle cx="288.465" cy="142.464" r="1.741" fill="#fff"/><path d="M417.807 166.217h-47.475a2.68 2.68 0 01-2.668-2.668 2.681 2.681 0 012.668-2.669h47.475a2.682 2.682 0 012.669 2.669 2.681 2.681 0 01-2.669 2.668zM299.751 166.217h-13.484a2.681 2.681 0 01-2.669-2.668 2.682 2.682 0 012.669-2.669h13.484a2.681 2.681 0 012.668 2.669 2.68 2.68 0 01-2.668 2.668zM357.234 166.217H343.75a2.682 2.682 0 01-2.666-2.668 2.682 2.682 0 012.666-2.669h13.487a2.682 2.682 0 012.669 2.669 2.681 2.681 0 01-2.669 2.668h-.003zM329.328 166.217h-13.484a2.682 2.682 0 01-2.666-2.668 2.682 2.682 0 012.666-2.669h13.487a2.682 2.682 0 012.669 2.669 2.681 2.681 0 01-2.669 2.668h-.003z" fill="#ccc" fill-rule="nonzero"/><path d="M751.643 459.664l.082-.124c.17-.263.338-.538.503-.823l.09-.157c.159-.269.31-.543.453-.823l.074-.14a13.1 13.1 0 00.461-.98c.297-.674.556-1.364.775-2.067l.082-.272c.074-.255.148-.51.214-.766l.082-.362c.055-.231.105-.464.149-.7 0-.132.049-.264.074-.395.024-.132.074-.461.107-.7.033-.239 0-.272.049-.404.05-.132.05-.502.066-.757v-69.489h-11.406v-33.336h-14v33.336h-9.651v-47.88h-14v47.88h-5.262v-54.723h-14v54.723h-12.353v68.023c0 11.101 9.232 20.094 20.588 20.094h39.529a20.759 20.759 0 0016.668-8.285c.203-.291.412-.582.626-.873z" fill="url(#_Linear3)" fill-rule="nonzero"/><path fill="#535461" d="M688.232 357.646h13.176v82.352h-13.176z"/><path fill="#3ad29f" d="M688.232 330.47h13.176v27.176h-13.176z"/><path fill="#535461" d="M706.349 364.235h13.176v82.352h-13.176z"/><path fill="#4d8af0" d="M706.349 337.058h13.176v27.176h-13.176z"/><path fill="#535461" d="M728.584 378.234h13.176v82.352h-13.176z"/><path fill="#f55f44" d="M728.584 351.058h13.176v27.176h-13.176z"/><path d="M676.703 383.175h75.763v65.47c0 10.617-8.736 19.353-19.352 19.353h-37.059c-10.616 0-19.352-8.736-19.352-19.353v-65.47z" fill="#6c63ff" fill-rule="nonzero"/><path d="M676.703 383.175v3.295h72.469v65.469a19.264 19.264 0 01-4.117 11.933 19.32 19.32 0 007.411-15.227v-65.47h-75.763z" fill-rule="nonzero"/><defs><linearGradient id="_Linear1" x1="0" y1="0" x2="1" y2="0" gradientUnits="userSpaceOnUse" gradientTransform="rotate(-90 439.578 39.99) scale(386.272)"><stop offset="0" stop-color="gray" stop-opacity=".25"/><stop offset=".54" stop-color="gray" stop-opacity=".12"/><stop offset="1" stop-color="gray" stop-opacity=".1"/></linearGradient><linearGradient id="_Linear2" x1="0" y1="0" x2="1" y2="0" gradientUnits="userSpaceOnUse" gradientTransform="translate(18601.8 119366) scale(24078.9)"><stop offset="0" stop-color="gray" stop-opacity=".25"/><stop offset=".54" stop-color="gray" stop-opacity=".12"/><stop offset="1" stop-color="gray" stop-opacity=".1"/></linearGradient><linearGradient id="_Linear3" x1="0" y1="0" x2="1" y2="0" gradientUnits="userSpaceOnUse" gradientTransform="translate(75941.2 81498.9) scale(7905.86)"><stop offset="0" stop-color="gray" stop-opacity=".25"/><stop offset=".54" stop-color="gray" stop-opacity=".12"/><stop offset="1" stop-color="gray" stop-opacity=".1"/></linearGradient></defs></svg>